<?xml version="1.0" encoding="UTF-8"?>
<!DOCTYPE svg PUBLIC "-//W3C//DTD SVG 1.1//EN" "http://www.w3.org/Graphics/SVG/1.1/DTD/svg11.dtd">
<!-- Creator: CorelDRAW -->
<svg xmlns="http://www.w3.org/2000/svg" xml:space="preserve" width="6.82666in" height="6.82666in" style="shape-rendering:geometricPrecision; text-rendering:geometricPrecision; image-rendering:optimizeQuality; fill-rule:evenodd; clip-rule:evenodd"
viewBox="0 0 6.82666 6.82666"
 xmlns:xlink="http://www.w3.org/1999/xlink">
 <defs>
  <style type="text/css">
   <![CDATA[
    .fil3 {fill:none}
    .fil2 {fill:#AED581}
    .fil1 {fill:#F45A52}
    .fil0 {fill:#333333;fill-rule:nonzero}
   ]]>
  </style>
 </defs>
 <g id="Layer_x0020_1">
  <metadata id="CorelCorpID_0Corel-Layer"/>
  <g id="_625026152">
   <path id="_625026008" class="fil0" d="M2.73194 3.83695c0.176913,0.128323 0.320748,0.325803 0.40174,0.549535 0.0769764,0.21265 0.0979016,0.449906 0.0375079,0.675307 -0.0784685,0.292858 -0.260161,0.528728 -0.490461,0.673311 -0.232217,0.145787 -0.513626,0.199043 -0.789177,0.125213 -0.275661,-0.0738622 -0.492803,-0.260705 -0.621012,-0.503067 -0.127126,-0.240307 -0.16652,-0.535374 -0.0880551,-0.828213 0.060622,-0.226252 0.190555,-0.419992 0.356843,-0.563913 0.174358,-0.150906 0.38939,-0.247268 0.607024,-0.26913l-2.3622e-005 -0.000244094c0.0330472,-0.00331496 0.0634134,0.0139843 0.0783268,0.0414528 0.0517087,0.0821378 0.104307,0.134205 0.165173,0.15061 0.0635079,0.0171181 0.144339,-0.000988189 0.252142,-0.0598228l-0.000137795 -0.000255906c0.0298898,-0.016315 0.0656102,-0.0115709 0.0901102,0.00921654zm0.25174 0.603913c-0.0651102,-0.179862 -0.175815,-0.339343 -0.311819,-0.449051 -0.125685,0.0604173 -0.230354,0.0754291 -0.323287,0.050378 -0.0923701,-0.0248976 -0.16685,-0.086937 -0.233449,-0.181358 -0.168752,0.0268189 -0.334217,0.106161 -0.471421,0.224913 -0.143063,0.123823 -0.254799,0.290307 -0.306843,0.484543 -0.0676969,0.25265 -0.0341063,0.506472 0.0749291,0.712583 0.107945,0.204059 0.290154,0.361209 0.521012,0.423067 0.23098,0.0618898 0.467409,0.0169134 0.662925,-0.105835 0.197425,-0.123945 0.353394,-0.326933 0.421083,-0.579563 0.0515709,-0.192465 0.0332756,-0.396232 -0.0331299,-0.579677z"/>
   <path id="_625025984" class="fil0" d="M2.32803 3.97907c0.00379528,0.0438346 0.0424134,0.0762953 0.086248,0.0725 0.0438346,-0.00379528 0.0762953,-0.0424134 0.0725,-0.086248 -0.000551181,-0.00612205 -0.204425,-2.12653 0.96526,-2.9673 0.0357244,-0.0257126 0.0438386,-0.0755276 0.018126,-0.111252 -0.0257126,-0.0357244 -0.0755276,-0.0438386 -0.111252,-0.018126 -1.2442,0.894339 -1.03145,3.10405 -1.03088,3.11043z"/>
  </g>
  <g id="_625025744">
   <path id="_625026200" class="fil0" d="M4.32317 3.76809c0.218299,0.0181654 0.444398,0.113449 0.630106,0.26415 0.175594,0.142496 0.315874,0.335039 0.38039,0.559425 0.0837283,0.291228 0.0496575,0.586925 -0.0731102,0.829563 -0.123756,0.244591 -0.337429,0.435315 -0.611681,0.514236l1.9685e-005 7.48031e-005c-0.00133465,0.00038189 -0.00266929,0.000732283 -0.00400394,0.00104331 -0.272976,0.0773071 -0.55374,0.0290276 -0.787378,-0.111807 -0.232831,-0.140343 -0.418764,-0.372902 -0.502634,-0.664409l-7.48031e-005 1.9685e-005c-0.000366142,-0.00127165 -0.00069685,-0.00254724 -0.001,-0.00382283 -0.0635472,-0.223906 -0.0519055,-0.455417 0.0159567,-0.663248 0.0716457,-0.219413 0.206205,-0.412941 0.381343,-0.543819l-3.93701e-005 -5.11811e-005c0.0272835,-0.0203858 0.0633268,-0.0207441 0.0905236,-0.00362205 0.0855669,0.0428386 0.156886,0.059815 0.217398,0.0425197 0.0630945,-0.0180354 0.122933,-0.0751969 0.184945,-0.181165l-0.00026378 -0.000153543c0.016752,-0.0286339 0.0485551,-0.0429961 0.0795039,-0.0389331zm0.529484 0.387898c-0.148339,-0.120378 -0.325445,-0.199862 -0.49876,-0.223724 -0.0765394,0.116516 -0.158524,0.183346 -0.251161,0.209827 -0.0915551,0.0261693 -0.187193,0.011374 -0.292933,-0.0351732 -0.130929,0.110055 -0.231866,0.263362 -0.288165,0.435776 -0.0584055,0.178882 -0.0685276,0.377921 -0.0140669,0.570185 0.000716535,0.00213386 0.00134646,0.00431102 0.00187795,0.00652756 0.0726102,0.249724 0.23172,0.44863 0.430571,0.568496 0.19685,0.118657 0.432776,0.159535 0.661539,0.0948189 0.00205906,-0.000685039 0.00415748,-0.00129134 0.0062874,-0.00180709 0.22822,-0.0665394 0.406429,-0.226453 0.510209,-0.431559 0.10524,-0.208 0.134181,-0.462421 0.0618661,-0.713941 -0.0550236,-0.191374 -0.175764,-0.356484 -0.327264,-0.479425z"/>
   <path id="_625025288" class="fil0" d="M4.05293 4.09887c0.0260591,0.0355512 0.0760118,0.0432441 0.111563,0.017185 0.0355512,-0.0260591 0.0432441,-0.0760118 0.017185,-0.111563 -0.00362992,-0.00496063 -1.27137,-1.71618 -0.70276,-3.03961 0.0174291,-0.0405551 -0.0013189,-0.0875709 -0.041874,-0.105 -0.0405551,-0.0174291 -0.0875709,0.0013189 -0.105,0.041874 -0.604913,1.40793 0.717102,3.19194 0.720886,3.19711z"/>
  </g>
  <g id="_625025240">
   <path id="_625025480" class="fil0" d="M5.59002 2.35004c-0.148492,-0.158272 -0.376421,-0.385736 -0.638319,-0.593043 -0.328012,-0.259642 -0.70837,-0.487587 -1.04564,-0.502516 -0.158429,-0.00701181 -0.286559,0.0348819 -0.381043,0.105516 -0.0777953,0.0581575 -0.13315,0.135768 -0.163933,0.221307 -0.0310039,0.0861575 -0.0375,0.180476 -0.0173425,0.271323 0.0239764,0.108047 0.0861299,0.211567 0.190157,0.291035 0.25139,0.192051 0.700902,0.252441 1.13642,0.258563 0.35165,0.00494094 0.693689,-0.0259567 0.919705,-0.052185zm-0.539571 -0.718043c0.339697,0.268894 0.622799,0.569512 0.757165,0.719563 0.0130906,0.0121929 0.0221929,0.0288307 0.0247362,0.0479488 0.00582677,0.0437953 -0.0249488,0.0840276 -0.0687441,0.0898543l-0.0105551 -0.0792992 0.010311 0.079063c-0.202516,0.0269567 -0.639681,0.078874 -1.09492,0.0724764 -0.464146,-0.00652756 -0.947728,-0.0743425 -1.23142,-0.291067 -0.135689,-0.103657 -0.217098,-0.240185 -0.248906,-0.383531 -0.0267047,-0.120366 -0.0181063,-0.245319 0.0229646,-0.359449 0.0412992,-0.114752 0.115028,-0.218476 0.218311,-0.295685 0.122114,-0.0912913 0.285031,-0.145555 0.483539,-0.136768 0.377047,0.016689 0.787713,0.260004 1.13752,0.536894z"/>
   <path id="_625025336" class="fil0" d="M3.30062 1.45006c-0.0440079,-0.00275984 -0.0819291,0.0306811 -0.084689,0.074689 -0.00275984,0.0440079 0.0306811,0.0819291 0.074689,0.084689 0.00153543,9.84252e-005 0.527539,0.0302874 1.36939,0.586122 0.0367598,0.0243346 0.0862913,0.0142598 0.110626,-0.0225 0.0243346,-0.0367598 0.0142598,-0.0862913 -0.0225,-0.110626 -0.87765,-0.579472 -1.44585,-0.612264 -1.44751,-0.612374z"/>
  </g>
  <g id="_625025600">
   <path id="_625025192" class="fil0" d="M1.00841 2.83366c0.0659173,-0.109992 0.205394,-0.329917 0.383236,-0.536681 0.18615,-0.216421 0.415583,-0.41937 0.653728,-0.476413 0.128598,-0.0308071 0.242323,-0.0157126 0.334291,0.0288346 0.0786024,0.0380669 0.140831,0.0973504 0.182799,0.167953 0.0416575,0.0700787 0.0632598,0.151693 0.0609685,0.235004 -0.00272047,0.0989685 -0.0390039,0.199598 -0.11524,0.285209 -0.154264,0.173224 -0.450433,0.27528 -0.741142,0.335697 -0.281886,0.0585906 -0.559563,0.0788307 -0.688768,0.0864094l1.1811e-005 0.000188976c-0.0441063,0.00258268 -0.0819606,-0.0310748 -0.0845433,-0.0751811 -0.0011063,-0.0189213 0.00446063,-0.0366929 0.0146575,-0.0510197zm0.504488 -0.432933c-0.117157,0.136209 -0.216988,0.278429 -0.288535,0.38837 0.138244,-0.0119488 0.323594,-0.0333071 0.510185,-0.0720866 0.26287,-0.0546339 0.527134,-0.142933 0.654268,-0.285697 0.0498268,-0.0559567 0.0735157,-0.120551 0.0752402,-0.183335 0.00144488,-0.0525906 -0.0124055,-0.104476 -0.0390945,-0.149374 -0.026378,-0.044374 -0.0654213,-0.0816024 -0.114673,-0.105457 -0.0609724,-0.0295315 -0.138299,-0.0390787 -0.228039,-0.0175827 -0.198811,0.047622 -0.401268,0.229744 -0.56935,0.425161z"/>
   <path id="_625025720" class="fil0" d="M2.50488 2.12107c0.0426299,-0.0110433 0.0682323,-0.0545591 0.057189,-0.097189 -0.0110433,-0.0426299 -0.0545591,-0.0682323 -0.097189,-0.057189 -0.00103543,0.000267717 -0.355374,0.0902126 -0.833504,0.557957 -0.0314094,0.0308898 -0.0318268,0.0814016 -0.000937008,0.112811 0.0308898,0.0314094 0.0814016,0.0318268 0.112811,0.000937008 0.447441,-0.43772 0.760717,-0.517091 0.76163,-0.517327z"/>
  </g>
  <path class="fil1" d="M2.67187 3.99181c-0.125685,0.0604173 -0.230354,0.0754291 -0.323287,0.050378 -0.0923701,-0.0248976 -0.16685,-0.086937 -0.233449,-0.181358 -0.168752,0.0268189 -0.334217,0.106161 -0.471421,0.224913 -0.143063,0.123823 -0.254799,0.290307 -0.306843,0.484543 -0.0676969,0.25265 -0.0341063,0.506472 0.0749291,0.712583 0.107945,0.204059 0.290154,0.361209 0.521012,0.423067 0.23098,0.0618898 0.467409,0.0169134 0.662925,-0.105835 0.197425,-0.123945 0.353394,-0.326933 0.421083,-0.579563 0.0515709,-0.192465 0.0332756,-0.396232 -0.0331299,-0.579677 -0.0651102,-0.179862 -0.175815,-0.339343 -0.311819,-0.449051z"/>
  <path class="fil1" d="M3.8098 4.10692c-0.130929,0.110055 -0.231866,0.263362 -0.288165,0.435776 -0.0584055,0.178882 -0.0685276,0.377921 -0.0140669,0.570185 0.000716535,0.00213386 0.00134646,0.00431102 0.00187795,0.00652756 0.0726102,0.249724 0.23172,0.44863 0.430571,0.568496 0.19685,0.118657 0.432776,0.159535 0.661539,0.0948189 0.00205906,-0.000685039 0.00415748,-0.00129134 0.0062874,-0.00180709 0.22822,-0.0665394 0.406429,-0.226453 0.510209,-0.431559 0.10524,-0.208 0.134181,-0.462421 0.0618661,-0.713941 -0.0550236,-0.191374 -0.175764,-0.356484 -0.327264,-0.479425 -0.148339,-0.120378 -0.325445,-0.199862 -0.49876,-0.223724 -0.0765394,0.116516 -0.158524,0.183346 -0.251161,0.209827 -0.0915551,0.0261693 -0.187193,0.011374 -0.292933,-0.0351732z"/>
  <path class="fil2" d="M3.53389 2.14367c0.25139,0.192051 0.700902,0.252441 1.13642,0.258563 0.35165,0.00494094 0.693689,-0.0259567 0.919705,-0.052185 -0.148492,-0.158272 -0.376421,-0.385736 -0.638319,-0.593043 -0.328012,-0.259642 -0.70837,-0.487587 -1.04564,-0.502516 -0.158429,-0.00701181 -0.286559,0.0348819 -0.381043,0.105516 -0.0412953,0.0308701 -0.0762677,0.0672244 -0.104598,0.107335 0.210661,0.0402283 0.686638,0.171815 1.32772,0.595094 0.0367598,0.0243346 0.0468346,0.0738661 0.0225,0.110626 -0.0243346,0.0367598 -0.0738661,0.0468346 -0.110626,0.0225 -0.677591,-0.447382 -1.15056,-0.554232 -1.31014,-0.578949 -0.0107402,0.038874 -0.0166535,0.0790315 -0.017563,0.119476 9.84252e-005,0.0124528 0.000295276,0.0249055 0.000586614,0.0373583 0.00143307,0.0265 0.00502756,0.0529882 0.0108425,0.079189 0.0239764,0.108047 0.0861299,0.211567 0.190157,0.291035z"/>
  <path class="fil2" d="M1.63044 2.63746c-0.0308898,-0.0314094 -0.0304724,-0.0819213 0.000937008,-0.112811 0.310681,-0.303933 0.569098,-0.448354 0.71228,-0.512303 -0.0105236,-0.00709843 -0.0216575,-0.0135276 -0.0333701,-0.0192008 -0.0609724,-0.0295315 -0.138299,-0.0390787 -0.228039,-0.0175827 -0.198811,0.047622 -0.401268,0.229744 -0.56935,0.425161 -0.117157,0.136209 -0.216988,0.278429 -0.288535,0.38837 0.138244,-0.0119488 0.323594,-0.0333071 0.510185,-0.0720866 0.26287,-0.0546339 0.527134,-0.142933 0.654268,-0.285697 0.0498268,-0.0559567 0.0735157,-0.120551 0.0752402,-0.183335 0.00100394,-0.0365354 -0.00537402,-0.0727283 -0.018311,-0.106476 -0.110984,0.0439409 -0.36961,0.171248 -0.702492,0.496898 -0.0314094,0.0308898 -0.0819213,0.0304724 -0.112811,-0.000937008z"/>
 </g>
 <rect class="fil3" width="6.82666" height="6.82666"/>
</svg>
