<?xml version="1.0" encoding="UTF-8"?>
<!DOCTYPE svg PUBLIC "-//W3C//DTD SVG 1.1//EN" "http://www.w3.org/Graphics/SVG/1.1/DTD/svg11.dtd">
<!-- Creator: CorelDRAW -->
<svg xmlns="http://www.w3.org/2000/svg" xml:space="preserve" width="6.82666in" height="6.82666in" style="shape-rendering:geometricPrecision; text-rendering:geometricPrecision; image-rendering:optimizeQuality; fill-rule:evenodd; clip-rule:evenodd"
viewBox="0 0 6.82666 6.82666"
 xmlns:xlink="http://www.w3.org/1999/xlink">
 <defs>
  <style type="text/css">
   <![CDATA[
    .fil2 {fill:none}
    .fil1 {fill:#C794BE}
    .fil0 {fill:#333333;fill-rule:nonzero}
   ]]>
  </style>
 </defs>
 <g id="Layer_x0020_1">
  <metadata id="CorelCorpID_0Corel-Layer"/>
  <g id="_625022720">
   <path id="_625024592" class="fil0" d="M2.87426 2.40902c0.0110433,-0.0426299 -0.0145591,-0.0861457 -0.057189,-0.097189 -0.0426299,-0.0110433 -0.0861457,0.0145591 -0.097189,0.057189 -0.0126654,0.0483268 -0.041311,0.090374 -0.0800157,0.120213 -0.0374961,0.0289094 -0.0847717,0.0461102 -0.136354,0.0461102 -0.0617126,0 -0.117587,-0.0250157 -0.15802,-0.0654449 -0.0404331,-0.0404331 -0.0654449,-0.0963071 -0.0654449,-0.15802 0,-0.0617126 0.0250118,-0.117587 0.0654449,-0.15802 0.0404331,-0.0404331 0.0963071,-0.0654449 0.15802,-0.0654449 0.0244803,0 0.0475276,0.00367323 0.0686339,0.0104646 0.0224016,0.00720866 0.0432165,0.017815 0.0618031,0.031185 0.0357244,0.0257126 0.0855394,0.0175984 0.111252,-0.018126 0.0257126,-0.0357244 0.0175984,-0.0855394 -0.018126,-0.111252 -0.0321063,-0.0230945 -0.0678661,-0.0413504 -0.106181,-0.0536811 -0.0375,-0.0120709 -0.0769764,-0.0185906 -0.117382,-0.0185906 -0.105882,0 -0.201752,0.0429252 -0.271146,0.112319 -0.0693937,0.0693937 -0.112319,0.165264 -0.112319,0.271146 0,0.105882 0.0429252,0.201752 0.112319,0.271146 0.0693937,0.0693898 0.165268,0.112319 0.271146,0.112319 0.0877835,0 0.168913,-0.0297835 0.233858,-0.0798583 0.0660512,-0.0509173 0.115047,-0.123114 0.13689,-0.206465z"/>
   <path id="_625024976" class="fil0" d="M3.30544 2.48196c0.0358976,-0.0255433 0.0442913,-0.0753543 0.018748,-0.111252 -0.0255433,-0.0358976 -0.0753543,-0.0442913 -0.111252,-0.018748 -0.0242756,0.0173228 -0.0509882,0.0309173 -0.0793071,0.0399646 -0.0271378,0.00867323 -0.0567559,0.0133583 -0.0882165,0.0133583 -0.0796693,0 -0.151803,-0.0322913 -0.204004,-0.0844921 -0.0522008,-0.0522008 -0.0844921,-0.124331 -0.0844921,-0.204 0,-0.0796693 0.0322913,-0.151803 0.0844921,-0.204004 0.0522008,-0.0522008 0.124335,-0.0844921 0.204004,-0.0844921 0.0691772,0 0.132465,0.0240709 0.181882,0.0642244 0.0505945,0.0411102 0.0870079,0.0989961 0.10076,0.165161 0.00897244,0.0431457 0.0512323,0.0708465 0.094378,0.061874 0.0431457,-0.00897244 0.0708465,-0.0512323 0.061874,-0.094378 -0.0213543,-0.102748 -0.0778701,-0.192606 -0.15639,-0.256406 -0.077315,-0.062815 -0.175657,-0.100476 -0.282504,-0.100476 -0.123835,0 -0.235969,0.0502047 -0.31713,0.131366 -0.0811614,0.0811614 -0.131366,0.193295 -0.131366,0.31713 0,0.123835 0.0502047,0.235965 0.131366,0.317126 0.0811614,0.0811614 0.193295,0.131366 0.31713,0.131366 0.0468465,0 0.0926929,-0.0075315 0.136343,-0.0214843 0.045,-0.0143819 0.0866299,-0.0353976 0.123685,-0.0618386z"/>
   <path id="_625023920" class="fil0" d="M3.54396 1.92842c0.105882,0 0.201752,0.0429252 0.271146,0.112319 0.0693937,0.0693937 0.112319,0.165264 0.112319,0.271146 0,0.105882 -0.0429252,0.201752 -0.112319,0.271146 -0.0693937,0.0693898 -0.165268,0.112319 -0.271146,0.112319 -0.105878,0 -0.201748,-0.0429252 -0.271146,-0.112319 -0.0693937,-0.0693937 -0.112319,-0.165264 -0.112319,-0.271146 0,-0.105882 0.0429252,-0.201752 0.112319,-0.271146 0.0693937,-0.0693937 0.165264,-0.112319 0.271146,-0.112319zm0.15802 0.225445c-0.0404331,-0.0404331 -0.0963071,-0.0654449 -0.15802,-0.0654449 -0.0617126,0 -0.117587,0.0250118 -0.15802,0.0654449 -0.0404331,0.0404331 -0.0654449,0.0963071 -0.0654449,0.15802 0,0.0617126 0.0250118,0.117587 0.0654449,0.15802 0.0404331,0.0404291 0.0963071,0.0654449 0.15802,0.0654449 0.0617126,0 0.117587,-0.0250157 0.15802,-0.0654449 0.0404331,-0.0404331 0.0654449,-0.0963071 0.0654449,-0.15802 0,-0.0617126 -0.0250118,-0.117587 -0.0654449,-0.15802z"/>
   <path id="_625023776" class="fil0" d="M3.66696 2.02999c-0.0246772,0.0365866 -0.0150236,0.0862638 0.021563,0.110941 0.0365866,0.0246772 0.0862638,0.0150236 0.110941,-0.021563 0.0243976,-0.0361299 0.0574803,-0.0659961 0.0962598,-0.0866181 0.037248,-0.0198071 0.0798307,-0.0310354 0.125114,-0.0310354 0.073685,0 0.140398,0.0298661 0.188673,0.0781417 0.0482756,0.0482756 0.0781417,0.114988 0.0781417,0.188673 0,0.073685 -0.0298661,0.140394 -0.0781417,0.188673 -0.0482756,0.0482756 -0.114988,0.0781417 -0.188673,0.0781417 -0.0372323,0 -0.0721575,-0.00727953 -0.103425,-0.0204331 -0.032937,-0.0138583 -0.0626772,-0.0343346 -0.0876024,-0.059815 -0.0308898,-0.0314094 -0.0814016,-0.0318268 -0.112811,-0.000937008 -0.0314094,0.0308898 -0.0318268,0.0814016 -0.000937008,0.112811 0.0392323,0.0401063 0.0865669,0.0725551 0.139476,0.094815 0.0513622,0.0216102 0.107244,0.0335591 0.165299,0.0335591 0.117854,0 0.224563,-0.0477795 0.301799,-0.125016 0.0772362,-0.0772441 0.125016,-0.183945 0.125016,-0.301799 0,-0.117854 -0.0477795,-0.224563 -0.125016,-0.301799 -0.0772362,-0.0772362 -0.183945,-0.125016 -0.301799,-0.125016 -0.0722441,0 -0.140366,0.0180079 -0.200114,0.0497835 -0.0618583,0.0328976 -0.114697,0.0806457 -0.153764,0.138492z"/>
   <path id="_625024160" class="fil0" d="M4.38532 2.20056c-0.0429724,-0.00983465 -0.0857874,0.0170276 -0.095622,0.06 -0.00983465,0.0429724 0.0170276,0.0857874 0.06,0.095622 0.0568898,0.0132047 0.106591,0.0456614 0.141937,0.0902047 0.0344173,0.0433701 0.0549764,0.098437 0.0549764,0.1585 0,0.0704724 -0.0285669,0.134276 -0.0747402,0.180449 -0.0461732,0.0461732 -0.10998,0.0747362 -0.180453,0.0747362 -0.0278386,0 -0.0541142,-0.00419291 -0.0782402,-0.0119488 -0.025563,-0.00821654 -0.0493031,-0.0202953 -0.0704961,-0.0355197 -0.0357244,-0.0257126 -0.0855394,-0.0175984 -0.111252,0.018126 -0.0257126,0.0357244 -0.0175984,0.0855394 0.018126,0.111252 0.0347638,0.0249764 0.0734488,0.0447008 0.114874,0.0580157 0.0405394,0.0130315 0.0832362,0.0200748 0.126988,0.0200748 0.114642,0 0.218445,-0.0464764 0.293579,-0.12161 0.0751339,-0.0751339 0.121614,-0.178933 0.121614,-0.293575 0,-0.0972756 -0.0336496,-0.186894 -0.0899764,-0.257878 -0.0572638,-0.0721614 -0.13824,-0.124846 -0.231315,-0.146449z"/>
   <path id="_625024112" class="fil0" d="M3.60995 2.57531c-0.0220906,-0.0381417 -0.0709213,-0.0511535 -0.109063,-0.029063 -0.0381417,0.0220906 -0.0511535,0.0709213 -0.029063,0.109063 0.0114055,0.0197205 0.0204016,0.0412559 0.0265354,0.064185 0.00583858,0.021815 0.00895669,0.0450315 0.00895669,0.0692677 0,0.073685 -0.0298661,0.140394 -0.0781417,0.188673 -0.0482756,0.0482756 -0.114988,0.0781417 -0.188673,0.0781417 -0.073685,0 -0.140394,-0.0298661 -0.188673,-0.0781417 -0.0482756,-0.0482795 -0.0781417,-0.114992 -0.0781417,-0.188673 0,-0.0498937 0.0135551,-0.0964606 0.0371535,-0.136205 0.024563,-0.0413583 0.0598228,-0.0754685 0.10187,-0.0984173 0.0386575,-0.0210551 0.0529291,-0.0694685 0.031874,-0.108126 -0.0210551,-0.0386575 -0.0694685,-0.0529291 -0.108126,-0.031874 -0.0675827,0.0368819 -0.124035,0.0913504 -0.163122,0.157165 -0.0378898,0.0638071 -0.0596496,0.138177 -0.0596496,0.217457 0,0.11785 0.0477795,0.224555 0.125016,0.301799 0.0772441,0.0772362 0.183945,0.125016 0.301799,0.125016 0.117854,0 0.224563,-0.0477795 0.301799,-0.125016 0.0772362,-0.0772441 0.125016,-0.183945 0.125016,-0.301799 0,-0.0379409 -0.00507087,-0.0750039 -0.0145787,-0.11052 -0.00970472,-0.0362638 -0.0242087,-0.0708189 -0.0427874,-0.102933z"/>
   <path id="_625024088" class="fil0" d="M2.94386 2.98257c0.0410748,-0.0160472 0.0613583,-0.0623622 0.045311,-0.103437 -0.0160472,-0.0410748 -0.0623622,-0.0613583 -0.103437,-0.045311 -0.0154016,0.00602362 -0.031311,0.0106417 -0.0475354,0.013689 -0.0153898,0.00288976 -0.0319882,0.00440551 -0.049685,0.00440551 -0.0704882,0 -0.1345,-0.0271732 -0.182102,-0.0715748 -0.0479528,-0.0447283 -0.0794016,-0.106929 -0.0841732,-0.176433 -0.00293307,-0.0440079 -0.0409921,-0.077311 -0.085,-0.074378 -0.0440079,0.00293307 -0.077311,0.0409921 -0.074378,0.085 0.00764961,0.111402 0.0580079,0.211059 0.134803,0.282685 0.0762874,0.0711535 0.178543,0.114701 0.29085,0.114701 0.0262913,0 0.0527441,-0.00259055 0.079063,-0.0075315 0.0265472,-0.00498819 0.052063,-0.0123386 0.0762835,-0.021815z"/>
   <path id="_625023968" class="fil0" d="M4.12859 2.57284c-0.0222598,-0.0379685 -0.0710945,-0.0507008 -0.109063,-0.0284409 -0.0379685,0.0222598 -0.0507008,0.0710945 -0.0284409,0.109063 0.0115354,0.0196024 0.0207441,0.0414646 0.0271772,0.0651457 0.00605118,0.0222756 0.00928346,0.0457992 0.00928346,0.0701496 0,0.073685 -0.0298661,0.140394 -0.0781417,0.188673 -0.0482756,0.0482756 -0.114988,0.0781417 -0.188673,0.0781417 -0.0393386,0 -0.0764685,-0.00835827 -0.109717,-0.0233701 -0.0349803,-0.0157913 -0.0658622,-0.0387362 -0.0907047,-0.0668898 -0.0291654,-0.0329646 -0.0795354,-0.0360433 -0.1125,-0.00687795 -0.0329646,0.0291654 -0.0360433,0.0795354 -0.00687795,0.1125 0.0399134,0.0452323 0.0890945,0.0818937 0.144461,0.10689 0.0537008,0.0242441 0.113075,0.037748 0.175339,0.037748 0.117854,0 0.224563,-0.0477795 0.301799,-0.125016 0.0772362,-0.0772441 0.125016,-0.183945 0.125016,-0.301799 0,-0.038689 -0.00518898,-0.076252 -0.0149055,-0.112024 -0.00985433,-0.0362677 -0.0247874,-0.0711654 -0.0440512,-0.103894z"/>
   <path id="_625024184" class="fil0" d="M4.42122 2.86107c-0.0372756,-0.0234685 -0.0865315,-0.0122756 -0.11,0.025 -0.0234685,0.0372756 -0.0122756,0.0865315 0.025,0.11 0.0381772,0.0240315 0.0698661,0.0575039 0.0917795,0.0971575 0.0210709,0.0381181 0.0330669,0.0821063 0.0330669,0.129055 0,0.073685 -0.0298661,0.140394 -0.0781457,0.188673 -0.0482756,0.0482756 -0.114988,0.0781417 -0.188673,0.0781417 -0.0277795,0 -0.0538622,-0.00390551 -0.077748,-0.0111535 -0.025248,-0.00766535 -0.049063,-0.0191063 -0.0707795,-0.0336654 -0.0365866,-0.0245039 -0.086122,-0.0147087 -0.110626,0.021878 -0.0245039,0.0365866 -0.0147087,0.086122 0.021878,0.110626 0.034378,0.0230512 0.0724724,0.0412756 0.113276,0.0536654 0.0399409,0.012122 0.0816102,0.0186496 0.124,0.0186496 0.117854,0 0.224563,-0.0477795 0.301799,-0.125016 0.0772441,-0.0772441 0.12502,-0.183945 0.12502,-0.301799 0,-0.0745433 -0.019252,-0.144756 -0.0530669,-0.205929 -0.0349921,-0.0633189 -0.0856693,-0.116819 -0.14678,-0.155283z"/>
   <path id="_625023896" class="fil0" d="M3.92489 3.05084c-0.0355512,-0.0258858 -0.0853622,-0.0180512 -0.111248,0.0175 -0.0258858,0.0355512 -0.0180512,0.0853622 0.0175,0.111248 0.0336417,0.0245118 0.0614843,0.0571457 0.0808858,0.0952441 0.0184213,0.0361772 0.028811,0.077248 0.028811,0.120862 0,0.073685 -0.0298661,0.140398 -0.0781417,0.188673 -0.0482795,0.0482756 -0.114992,0.0781417 -0.188677,0.0781417 -0.073685,0 -0.140394,-0.0298661 -0.188673,-0.0781417 -0.0482756,-0.0482756 -0.0781417,-0.114988 -0.0781417,-0.188673 0,-0.0572205 0.0178386,-0.110079 0.0482087,-0.15328 0.0315197,-0.0448268 0.076189,-0.0794921 0.128193,-0.0981811 0.0414213,-0.0148386 0.0629646,-0.0604528 0.048126,-0.101874 -0.0148386,-0.0414213 -0.0604528,-0.0629646 -0.101874,-0.048126 -0.0836575,0.030063 -0.155094,0.0852323 -0.205067,0.156307 -0.0488819,0.0695315 -0.0775866,0.154094 -0.0775866,0.245154 0,0.117854 0.0477795,0.224563 0.125016,0.301799 0.0772441,0.0772362 0.183945,0.125016 0.301799,0.125016 0.117854,0 0.224559,-0.0477795 0.301803,-0.125016 0.0772362,-0.0772362 0.125016,-0.183945 0.125016,-0.301799 0,-0.0694961 -0.0167008,-0.13522 -0.0463071,-0.193366 -0.0304764,-0.0598465 -0.0751063,-0.111752 -0.129642,-0.151488z"/>
   <path id="_625024232" class="fil0" d="M3.42809 3.63548c0.0336535,-0.0283031 0.0379882,-0.0785354 0.00968504,-0.112189 -0.0283031,-0.0336535 -0.0785354,-0.0379882 -0.112189,-0.00968504 -0.0234409,0.0197087 -0.050563,0.0355118 -0.080311,0.0463465 -0.0281339,0.010248 -0.0589252,0.0158425 -0.0914764,0.0158425 -0.073685,0 -0.140394,-0.0298661 -0.188673,-0.0781417 -0.0482756,-0.0482795 -0.0781417,-0.114992 -0.0781417,-0.188673 0,-0.048185 0.012374,-0.0929646 0.0340433,-0.131311 0.0224961,-0.0398071 0.055378,-0.073437 0.0951654,-0.097437 0.0377953,-0.0227795 0.0499646,-0.0718937 0.027185,-0.109689 -0.0227795,-0.0377953 -0.0718937,-0.0499646 -0.109689,-0.027185 -0.0626535,0.0377913 -0.114961,0.0916929 -0.151409,0.156185 -0.0352008,0.0622874 -0.0552953,0.133776 -0.0552953,0.209437 0,0.11785 0.0477795,0.224555 0.125016,0.301799 0.0772441,0.0772362 0.183945,0.125016 0.301799,0.125016 0.0508189,0 0.0999606,-0.00912598 0.145854,-0.0258425 0.0470827,-0.0171496 0.0904685,-0.0425472 0.128437,-0.0744724z"/>
   <path id="_625024136" class="fil0" d="M2.86957 3.53519c0.041248,-0.0153583 0.0622362,-0.061252 0.046878,-0.1025 -0.0153583,-0.041248 -0.061252,-0.0622362 -0.1025,-0.046878 -0.0148268,0.00554331 -0.0301811,0.00980709 -0.0459055,0.0126417 -0.0143622,0.00258661 -0.0302992,0.00394094 -0.0477717,0.00394094 -0.073685,0 -0.140394,-0.0298661 -0.188673,-0.0781417 -0.0482756,-0.0482756 -0.0781417,-0.114988 -0.0781417,-0.188673 0,-0.0489173 0.0129409,-0.0945236 0.0355472,-0.133555 0.0236969,-0.0409213 0.0577283,-0.0749173 0.0984094,-0.0982953 0.0381417,-0.0219173 0.0512913,-0.0706102 0.029374,-0.108752 -0.0219173,-0.0381417 -0.0706102,-0.0512913 -0.108752,-0.029374 -0.0652835,0.0375157 -0.119626,0.0916102 -0.157157,0.156421 -0.0365157,0.0630472 -0.0574213,0.136016 -0.0574213,0.213555 0,0.117854 0.0477795,0.224563 0.125016,0.301799 0.0772441,0.0772362 0.183945,0.125016 0.301799,0.125016 0.0247362,0 0.0501378,-0.00242913 0.0758976,-0.00706693 0.0254094,-0.00457874 0.0499488,-0.0113701 0.0734016,-0.0201378z"/>
   <path id="_625024376" class="fil0" d="M2.95627 4.05542c0.041248,-0.0153583 0.0622362,-0.061252 0.046878,-0.1025 -0.0153583,-0.041248 -0.061252,-0.0622362 -0.1025,-0.046878 -0.0148268,0.00554331 -0.0301811,0.00981102 -0.0459016,0.0126417 -0.0143622,0.00258661 -0.0302992,0.00394094 -0.0477677,0.00394094 -0.0736811,0 -0.140394,-0.0298661 -0.188669,-0.0781417 -0.0482756,-0.0482795 -0.0781417,-0.114988 -0.0781417,-0.188673 0,-0.0325472 0.00559449,-0.0633386 0.0158465,-0.0914724 0.0108346,-0.029752 0.0266417,-0.056878 0.0463425,-0.080315 0.0283031,-0.0336535 0.0239685,-0.0838858 -0.00968504,-0.112189 -0.0336535,-0.0283031 -0.0838858,-0.0239685 -0.112189,0.00968504 -0.0319213,0.0379724 -0.0573228,0.0813622 -0.0744685,0.128441 -0.0167205,0.0458898 -0.0258465,0.0950354 -0.0258465,0.14585 0,0.117854 0.0477795,0.224555 0.125016,0.301799 0.0772362,0.0772362 0.183945,0.125016 0.301795,0.125016 0.0247362,0 0.0501378,-0.00242913 0.0758937,-0.00706693 0.0254055,-0.00457874 0.0499488,-0.0113701 0.0733976,-0.0201378z"/>
   <path id="_625023104" class="fil0" d="M3.5148 4.15571c0.0336535,-0.0283031 0.0379882,-0.0785354 0.00968504,-0.112189 -0.0283031,-0.0336535 -0.0785354,-0.0379882 -0.112189,-0.00968504 -0.0234409,0.0197087 -0.0505591,0.0355118 -0.0803071,0.0463465 -0.0281417,0.010252 -0.0589331,0.0158465 -0.0914843,0.0158465 -0.073685,0 -0.140394,-0.0298661 -0.188673,-0.0781417 -0.0482756,-0.0482756 -0.0781417,-0.114988 -0.0781417,-0.188669 0,-0.0325512 0.00559449,-0.0633465 0.0158465,-0.0914843 0.0108346,-0.029752 0.0266417,-0.056874 0.0463465,-0.080311 0.0283031,-0.0336535 0.0239685,-0.0838858 -0.00968504,-0.112189 -0.0336535,-0.0283031 -0.0838858,-0.0239685 -0.112189,0.00968504 -0.0319252,0.0379685 -0.0573228,0.0813504 -0.0744724,0.128437 -0.0167205,0.0458976 -0.0258465,0.0950433 -0.0258465,0.145862 0,0.11785 0.0477795,0.224559 0.125016,0.301795 0.0772441,0.0772362 0.183945,0.125016 0.301799,0.125016 0.050815,0 0.0999606,-0.00912598 0.145862,-0.0258465 0.0470827,-0.0171496 0.0904646,-0.0425472 0.128433,-0.0744724z"/>
   <path id="_625023080" class="fil0" d="M4.0667 4.21315c0.0307205,-0.0315827 0.0300197,-0.0820945 -0.00156299,-0.112815 -0.0315827,-0.0307205 -0.0820945,-0.0300197 -0.112815,0.00156299 -0.0248858,0.0256181 -0.0546299,0.0462165 -0.0875984,0.0601575 -0.0314764,0.013311 -0.0665945,0.0206772 -0.103992,0.0206772 -0.0736811,0 -0.140394,-0.0298661 -0.188673,-0.0781417 -0.0482756,-0.0482795 -0.0781417,-0.114988 -0.0781417,-0.188673 0,-0.0325512 0.00559449,-0.0633465 0.0158425,-0.0914803 0.0108346,-0.029748 0.0266339,-0.0568661 0.0463425,-0.0803071 0.0283031,-0.0336535 0.0239685,-0.0838858 -0.00968504,-0.112189 -0.0336535,-0.0283031 -0.0838858,-0.0239685 -0.112189,0.00968504 -0.0319252,0.0379685 -0.0573189,0.0813543 -0.0744685,0.128433 -0.0167165,0.0458937 -0.0258425,0.0950394 -0.0258425,0.145858 0,0.117854 0.0477795,0.224555 0.125016,0.301799 0.0772441,0.0772362 0.183949,0.125016 0.301799,0.125016 0.0583268,0 0.114406,-0.0120433 0.165866,-0.0338031 0.0532126,-0.0225 0.100768,-0.0552874 0.140102,-0.0957795z"/>
   <path id="_625023032" class="fil0" d="M4.35949 3.48685c-0.0345157,-0.0274409 -0.084748,-0.0217047 -0.112189,0.012811 -0.0274409,0.0345157 -0.0217047,0.084748 0.012811,0.112189 0.0315472,0.0250236 0.0572835,0.0568898 0.074878,0.0932717 0.0168346,0.0348189 0.0262795,0.074185 0.0262795,0.116087 0,0.073685 -0.0298661,0.140394 -0.0781417,0.188673 -0.0482756,0.0482756 -0.114988,0.0781417 -0.188673,0.0781417 -0.0736811,0 -0.140394,-0.0298661 -0.188673,-0.0781417 -0.0482756,-0.0482795 -0.0781417,-0.114988 -0.0781417,-0.188673 0,-0.0131811 0.000673228,-0.0247638 0.00197638,-0.0347677 0.00145276,-0.0111732 0.00375197,-0.0225984 0.00683071,-0.034189 0.0112165,-0.0426299 -0.014248,-0.0862835 -0.056878,-0.0975 -0.0426299,-0.0112165 -0.0862835,0.014248 -0.0975,0.056878 -0.00456299,0.0171693 -0.00811417,0.0352559 -0.0105787,0.054189 -0.00253543,0.0194961 -0.00385039,0.0380157 -0.00385039,0.0553898 0,0.117854 0.0477795,0.224555 0.125016,0.301799 0.0772441,0.0772362 0.183949,0.125016 0.301799,0.125016 0.117854,0 0.224563,-0.0477795 0.301799,-0.125016 0.0772362,-0.0772441 0.125016,-0.183945 0.125016,-0.301799 0,-0.0661772 -0.0152795,-0.12911 -0.0425315,-0.185465 -0.0282047,-0.0583189 -0.069185,-0.109185 -0.119248,-0.148894z"/>
   <path id="_625022984" class="fil0" d="M4.33634 4.0622c-0.029685,-0.0326181 -0.0801969,-0.0349961 -0.112815,-0.00531102 -0.0326181,0.029685 -0.0349961,0.0801969 -0.00531102,0.112815 0.0221929,0.0243583 0.0398858,0.0525709 0.0517992,0.0833504 0.0113858,0.0294252 0.0176378,0.0619134 0.0176378,0.0963937 0,0.073685 -0.0298661,0.140394 -0.0781417,0.188669 -0.0482756,0.0482756 -0.114988,0.0781417 -0.188673,0.0781417 -0.0410748,0 -0.079874,-0.00920866 -0.114445,-0.0256614 -0.0363583,-0.0173031 -0.0680354,-0.0422835 -0.0928071,-0.0727283 -0.0277835,-0.0341693 -0.0780157,-0.0393465 -0.112185,-0.011563 -0.0341693,0.0277835 -0.0393465,0.0780157 -0.011563,0.112185 0.0400236,0.049189 0.0904803,0.0892008 0.147807,0.116484 0.0556142,0.0264685 0.117736,0.0412835 0.183193,0.0412835 0.117854,0 0.224563,-0.0477795 0.301799,-0.125016 0.0772362,-0.0772362 0.125016,-0.183941 0.125016,-0.301795 0,-0.0537677 -0.0102362,-0.105693 -0.0288898,-0.153898 -0.0192874,-0.0498189 -0.0474252,-0.094937 -0.0824213,-0.13335z"/>
   <path id="_625023536" class="fil0" d="M4.01033 4.20795c-0.00551969,-0.0436614 -0.0454016,-0.0745827 -0.089063,-0.069063 -0.0436614,0.00551969 -0.0745827,0.0454016 -0.069063,0.089063 0.000543307,0.00424409 0.00105906,0.01 0.00152362,0.0173189 0.000267717,0.00420079 0.000405512,0.0100236 0.000405512,0.0174724 0,0.073685 -0.0298661,0.140394 -0.0781457,0.188673 -0.0482756,0.0482756 -0.114988,0.0781417 -0.188673,0.0781417 -0.0736811,0 -0.140394,-0.0298661 -0.188673,-0.0781417 -0.0482756,-0.0482795 -0.0781417,-0.114988 -0.0781417,-0.188673 0,-0.0131181 0.000622047,-0.0244055 0.0018189,-0.0338898 0.0013937,-0.0110276 0.0035315,-0.0220551 0.00635827,-0.0330039 0.0110433,-0.0426299 -0.0145591,-0.0861457 -0.057189,-0.097189 -0.0426299,-0.0110433 -0.0861457,0.0145591 -0.097189,0.057189 -0.00440551,0.017063 -0.00780315,0.0347598 -0.0101063,0.0530039 -0.00243701,0.0192559 -0.00369291,0.0372795 -0.00369291,0.0538898 0,0.117854 0.0477795,0.224555 0.125016,0.301799 0.0772441,0.0772362 0.183953,0.125016 0.301799,0.125016 0.117854,0 0.224563,-0.0477795 0.301799,-0.125016 0.0772441,-0.0772441 0.12502,-0.183945 0.12502,-0.301799 0,-0.00764961 -0.000346457,-0.0168228 -0.00102756,-0.0274724 -0.000488189,-0.00768898 -0.0014252,-0.0168268 -0.00277559,-0.0273189z"/>
   <path id="_625023248" class="fil0" d="M3.4848 4.61849c0.0277835,-0.0341693 0.0226063,-0.0844016 -0.011563,-0.112185 -0.0341693,-0.0277835 -0.0844016,-0.0226063 -0.112185,0.011563 -0.0247756,0.0304449 -0.0564567,0.0554331 -0.092811,0.0727323 -0.0345709,0.0164528 -0.073374,0.0256614 -0.114449,0.0256614 -0.073685,0 -0.140394,-0.0298661 -0.188673,-0.0781417 -0.0482756,-0.0482756 -0.0781417,-0.114988 -0.0781417,-0.188669 0,-0.048189 0.012374,-0.0929685 0.0340433,-0.131315 0.0224961,-0.039811 0.055378,-0.073437 0.0951654,-0.097437 0.0377953,-0.0227795 0.0499646,-0.0718937 0.027185,-0.109689 -0.0227795,-0.0377953 -0.0718937,-0.0499646 -0.109689,-0.027185 -0.0626535,0.0377913 -0.114965,0.0916929 -0.151409,0.156185 -0.0352008,0.0622874 -0.0552953,0.133783 -0.0552953,0.209441 0,0.11785 0.0477795,0.224559 0.125016,0.301795 0.0772441,0.0772362 0.183945,0.125016 0.301799,0.125016 0.0654528,0 0.127583,-0.014815 0.183197,-0.0412835 0.0573268,-0.0272795 0.10778,-0.0672992 0.147811,-0.116488z"/>
   <path id="_625023272" class="fil0" d="M2.84259 4.59972c0.0438346,0.00517323 0.0835748,-0.0261654 0.088748,-0.07 0.00517323,-0.0438346 -0.0261654,-0.0835748 -0.07,-0.088748 -0.0665709,-0.00798425 -0.125535,-0.0403504 -0.167634,-0.0878583 -0.0415827,-0.0469291 -0.0668346,-0.108929 -0.0668346,-0.177079 0,-0.0325512 0.00559449,-0.0633425 0.0158465,-0.0914843 0.0108346,-0.029748 0.0266378,-0.0568661 0.0463465,-0.0803071 0.0283031,-0.0336535 0.0239685,-0.0838858 -0.00968504,-0.112189 -0.0336535,-0.0283031 -0.0838858,-0.0239685 -0.112189,0.00968504 -0.0319252,0.0379724 -0.0573228,0.0813543 -0.0744724,0.128433 -0.0167205,0.0459016 -0.0258465,0.0950472 -0.0258465,0.145862 0,0.108232 0.0405984,0.207248 0.107457,0.282701 0.0676102,0.0762992 0.16198,0.12824 0.268264,0.140984z"/>
   <path id="_625023008" class="fil0" d="M3.17755 5.08928c0.0421102,-0.0127717 0.0658976,-0.0572677 0.053126,-0.099378 -0.0127717,-0.0421102 -0.0572677,-0.0658976 -0.099378,-0.053126 -0.0116575,0.00356299 -0.0245276,0.00642913 -0.038563,0.00851969 -0.0126378,0.00188189 -0.0259528,0.00285827 -0.0398819,0.00285827 -0.073685,0 -0.140394,-0.0298661 -0.188673,-0.0781417 -0.0482756,-0.0482795 -0.0781417,-0.114988 -0.0781417,-0.188673 0,-0.0265236 0.00355906,-0.0514488 0.010189,-0.0743622 0.00701969,-0.0242677 0.0175315,-0.0472874 0.0309528,-0.0684764 0.0234685,-0.0372756 0.0122756,-0.0865315 -0.025,-0.11 -0.0372756,-0.0234685 -0.0865315,-0.0122756 -0.11,0.025 -0.0211024,0.033315 -0.0377598,0.0699764 -0.0490787,0.109098 -0.0111063,0.038374 -0.017063,0.078248 -0.017063,0.11874 0,0.117854 0.0477795,0.224555 0.125016,0.301799 0.0772441,0.0772362 0.183945,0.125016 0.301799,0.125016 0.0210276,0 0.0420787,-0.00161811 0.0630079,-0.00473228 0.0202559,-0.00301575 0.0408819,-0.00777953 0.061689,-0.0141417z"/>
   <path id="_625023320" class="fil0" d="M3.7684 4.54569c-0.0245039,-0.0365866 -0.0740394,-0.0463819 -0.110626,-0.021878 -0.0365866,0.0245039 -0.0463819,0.0740394 -0.021878,0.110626 0.0145669,0.0217244 0.0260079,0.0455354 0.0336772,0.0707835 0.00725197,0.0238858 0.0111575,0.0499606 0.0111575,0.0777402 0,0.073685 -0.0298661,0.140394 -0.0781457,0.188673 -0.0482756,0.0482756 -0.114988,0.0781417 -0.188673,0.0781417 -0.073685,0 -0.140394,-0.0298661 -0.188673,-0.0781417 -0.0482756,-0.0482795 -0.0781417,-0.114988 -0.0781417,-0.188673 0,-0.013437 0.000799213,-0.0257441 0.00233858,-0.0369094 0.00167717,-0.0121496 0.00423228,-0.0242126 0.00759055,-0.0360945 0.0119055,-0.0424528 -0.0128583,-0.0865315 -0.055311,-0.098437 -0.0424528,-0.0119055 -0.0865315,0.0128583 -0.098437,0.055311 -0.00522047,0.0184685 -0.00924803,0.0376181 -0.0119685,0.0573465 -0.00277559,0.0201102 -0.0042126,0.0397559 -0.0042126,0.0587835 0,0.117854 0.0477795,0.224555 0.125016,0.301799 0.0772441,0.0772362 0.183945,0.125016 0.301799,0.125016 0.117854,0 0.224563,-0.0477795 0.301799,-0.125016 0.0772441,-0.0772441 0.12502,-0.183945 0.12502,-0.301799 0,-0.0423898 -0.00652362,-0.0840512 -0.0186535,-0.123992 -0.0123976,-0.0408071 -0.030626,-0.0789055 -0.0536772,-0.11328z"/>
   <path id="_625022888" class="fil0" d="M4.20193 4.63239c-0.0245039,-0.0365866 -0.0740394,-0.0463819 -0.110626,-0.021878 -0.0365866,0.0245039 -0.0463819,0.0740394 -0.021878,0.110626 0.014563,0.0217165 0.026,0.0455315 0.0336654,0.0707874 0.00725197,0.0238858 0.0111575,0.0499646 0.0111575,0.0777441 0,0.073685 -0.0298661,0.140394 -0.0781457,0.188673 -0.0482756,0.0482756 -0.114988,0.0781417 -0.188673,0.0781417 -0.0410748,0 -0.079874,-0.00920866 -0.114445,-0.0256614 -0.0363622,-0.0173031 -0.0680354,-0.0422874 -0.092811,-0.0727323 -0.0277835,-0.0341693 -0.0780157,-0.0393465 -0.112185,-0.011563 -0.0341693,0.0277835 -0.0393465,0.0780157 -0.011563,0.112185 0.0400315,0.049189 0.0904764,0.0892047 0.147811,0.116488 0.0556142,0.0264685 0.117736,0.0412835 0.183193,0.0412835 0.117854,0 0.224563,-0.0477795 0.301799,-0.125016 0.0772441,-0.0772441 0.12502,-0.183945 0.12502,-0.301799 0,-0.0423898 -0.00652362,-0.0840551 -0.0186535,-0.123996 -0.0123858,-0.0408071 -0.0306102,-0.0789016 -0.0536654,-0.113283z"/>
   <path id="_625022336" class="fil0" d="M4.04281 5.21032c0.00776378,-0.0433189 -0.0210551,-0.0847362 -0.064374,-0.0925 -0.0433189,-0.00776378 -0.0847362,0.0210551 -0.0925,0.064374 -0.0113031,0.0625472 -0.0447559,0.117705 -0.0920433,0.157161 -0.046122,0.0384803 -0.105661,0.0616378 -0.170787,0.0616378 -0.073685,0 -0.140394,-0.0298661 -0.188673,-0.0781417 -0.0482756,-0.0482756 -0.0781417,-0.114988 -0.0781417,-0.188669 0,-0.00732677 2.3622e-005,-0.0114764 6.69291e-005,-0.0124173l-0.079689 -0.00375197 0.0799134 0.00375591c9.05512e-005,-0.0019252 0.000110236,-0.00383858 6.29921e-005,-0.00573622 0.00015748,-0.00256693 0.000326772,-0.00483071 0.000507874,-0.00681102 0.0039685,-0.0438346 -0.0283504,-0.0825945 -0.072185,-0.086563 -0.0438346,-0.0039685 -0.0825945,0.0283504 -0.086563,0.072185 -0.000401575,0.00435039 -0.000732283,0.00844882 -0.000992126,0.0122835 -0.000318898,0.00234646 -0.000543307,0.00472047 -0.00065748,0.00712992l0.000224409 1.1811e-005c-0.000456693,0.00976378 -0.000688976,0.0164016 -0.000688976,0.0199134 0,0.11785 0.0477795,0.224559 0.125016,0.301795 0.0772441,0.0772362 0.183945,0.125016 0.301799,0.125016 0.103811,0 0.199114,-0.0372441 0.273291,-0.0991339 0.0750197,-0.0625945 0.128217,-0.150839 0.146413,-0.251539zm-0.842776 -0.115327c0.0102913,-0.0343622 0.0429409,-0.0586496 0.0803898,-0.0568937 0.0398504,0.00187008 0.0715079,0.0325984 0.0757559,0.0710354l-0.156146 -0.0141417z"/>
   <path id="_625022216" class="fil0" d="M3.44705 5.44707c0.0308898,-0.0314094 0.0304724,-0.0819213 -0.000937008,-0.112811 -0.0314094,-0.0308898 -0.0819213,-0.0304724 -0.112811,0.000937008 -0.0245354,0.0250197 -0.0542323,0.045311 -0.0875157,0.0592913 -0.031689,0.013311 -0.0665709,0.0206732 -0.10324,0.0206732 -0.073685,0 -0.140394,-0.0298661 -0.188673,-0.0781417 -0.0482756,-0.0482795 -0.0781417,-0.114988 -0.0781417,-0.188673 0,-0.0266063 0.00359055,-0.0516457 0.0102835,-0.0746811 0.00711811,-0.0245 0.0176063,-0.0474882 0.0309094,-0.0683937 0.0236417,-0.0371063 0.0127283,-0.0863583 -0.024378,-0.11 -0.0371063,-0.0236417 -0.0863583,-0.0127283 -0.11,0.024378 -0.0214567,0.0337165 -0.0383071,0.0705669 -0.0496575,0.109638 -0.0111693,0.038437 -0.0171575,0.0784173 -0.0171575,0.119059 0,0.117854 0.0477795,0.224555 0.125016,0.301799 0.0772441,0.0772362 0.183945,0.125016 0.301799,0.125016 0.0584764,0 0.114268,-0.011811 0.165114,-0.0331693 0.0524724,-0.0220394 0.0997795,-0.0545276 0.13939,-0.0949213z"/>
   <path id="_625022168" class="fil0" d="M3.78046 5.43427c-0.0198465,-0.0393504 -0.0678386,-0.0551614 -0.107189,-0.035315 -0.0393504,0.0198465 -0.0551614,0.0678386 -0.035315,0.107189 0.00711811,0.0141063 0.0127638,0.0295827 0.0167047,0.0462008 0.00370866,0.0156417 0.00567323,0.0320866 0.00567323,0.0491142 0,0.0585118 -0.0237165,0.111488 -0.0620472,0.149819 -0.0383346,0.0383346 -0.0913071,0.0620512 -0.149819,0.0620512 -0.0585118,0 -0.111488,-0.0237165 -0.149823,-0.0620512 -0.0383346,-0.0383307 -0.0620512,-0.0913071 -0.0620512,-0.149819 0,-0.0142283 0.00125197,-0.0276339 0.00363386,-0.0401063 0.00265354,-0.0139055 0.00638976,-0.0267835 0.0110748,-0.0385394 0.0162205,-0.0409016 -0.0037874,-0.0872165 -0.044689,-0.103437 -0.0409016,-0.0162205 -0.0872165,0.0037874 -0.103437,0.044689 -0.00879921,0.0220709 -0.0154882,0.0445945 -0.0198228,0.0672874 -0.00443307,0.0232126 -0.00675984,0.0466654 -0.00675984,0.0701063 0,0.102685 0.0416299,0.195654 0.108925,0.262945 0.0672953,0.0672953 0.160268,0.108925 0.262949,0.108925 0.102681,0 0.19565,-0.0416299 0.262945,-0.108925 0.0672913,-0.0672913 0.108921,-0.160264 0.108921,-0.262945 0,-0.0294764 -0.00348031,-0.0582756 -0.0100512,-0.0859882 -0.00665354,-0.0280472 -0.0167402,-0.0552638 -0.0298228,-0.0812008z"/>
   <path id="_625022672" class="fil0" d="M3.47845 2.00406c-0.00258661,0.0440079 0.0309921,0.0817913 0.075,0.084378 0.0440079,0.00258661 0.0817913,-0.0309921 0.084378,-0.075 0.00581496,-0.0975 0.0497441,-0.399339 0.280815,-0.653902 0.135642,-0.149433 0.336366,-0.282508 0.632846,-0.34839 0.0429724,-0.00949213 0.0701142,-0.0520276 0.060622,-0.095 -0.00949213,-0.0429724 -0.0520276,-0.0701142 -0.095,-0.060622 -0.334008,0.0742205 -0.561685,0.225846 -0.716594,0.396508 -0.264898,0.291831 -0.315366,0.639614 -0.322067,0.752028z"/>
  </g>
  <path class="fil1" d="M3.62311 5.56099c-0.0847126,0 -0.163665,-0.024685 -0.230055,-0.0672559 -0.0264094,0.019252 -0.0550354,0.0355 -0.0853937,0.048252 -0.0217913,0.00915354 -0.0444921,0.0165551 -0.0679213,0.0220197 -0.00206299,0.0117126 -0.00314567,0.0242283 -0.00314567,0.0374528 0,0.0585118 0.0237165,0.111488 0.0620512,0.149819 0.0383346,0.0383346 0.091311,0.0620512 0.149823,0.0620512 0.0585118,0 0.111484,-0.0237165 0.149819,-0.0620512 0.0383307,-0.0383307 0.0620472,-0.0913071 0.0620472,-0.149819 0,-0.014374 -0.00140157,-0.0283307 -0.00406693,-0.0417441 -0.0109449,0.000846457 -0.022,0.00127559 -0.0331575,0.00127559z"/>
  <path class="fil1" d="M3.27444 5.38041c-0.046311,-0.0654567 -0.0746575,-0.144528 -0.0778465,-0.230024 -0.024,-0.0142244 -0.0464843,-0.0307362 -0.0671575,-0.0492283 -0.00454331,0.00084252 -0.00907087,0.00160236 -0.0135787,0.00227165 -0.0209291,0.00311417 -0.0419803,0.00473228 -0.0630079,0.00473228 -0.0592638,0 -0.115709,-0.0120827 -0.167008,-0.0339173 -0.00658268,0.022878 -0.0101142,0.0477205 -0.0101142,0.0741024 0,0.073685 0.0298661,0.140394 0.0781417,0.188673 0.0482795,0.0482756 0.114988,0.0781417 0.188673,0.0781417 0.0366693,0 0.0715512,-0.0073622 0.10324,-0.0206732 0.00988189,-0.00414961 0.0194488,-0.00885827 0.0286575,-0.0140787z"/>
  <path class="fil1" d="M3.36639 5.20717c0.0125827,0.0443465 0.0363425,0.0839882 0.0680394,0.115685 0.0482795,0.0482756 0.114988,0.0781417 0.188673,0.0781417 0.065126,0 0.124665,-0.0231575 0.170787,-0.0616378 0.0153307,-0.0127913 0.0292047,-0.0272323 0.0413425,-0.0430394 -0.0609764,-0.00171654 -0.118846,-0.0162913 -0.170996,-0.0411102 -0.0383898,-0.0182677 -0.0736929,-0.042248 -0.10485,-0.0708661 -0.0454055,0.0164646 -0.0943937,0.0254409 -0.14548,0.0254409 -0.016063,0 -0.0319134,-0.000885827 -0.0475157,-0.00261417z"/>
  <path class="fil1" d="M3.41391 5.04978c0.073685,0 0.140398,-0.0298661 0.188673,-0.0781417 0.0482795,-0.0482795 0.0781457,-0.114988 0.0781457,-0.188673 0,-0.0277795 -0.00390551,-0.0538543 -0.0111575,-0.0777402 -0.00228346,-0.00751181 -0.00489764,-0.0148976 -0.00783071,-0.0221378 -0.0241693,0.00425197 -0.0490354,0.0064685 -0.0744213,0.0064685 -0.0510827,0 -0.100075,-0.00897638 -0.14548,-0.0254409 -0.0311575,0.0286181 -0.0664606,0.0525945 -0.104846,0.0708622 -0.0556142,0.0264685 -0.117744,0.0412835 -0.183197,0.0412835 -0.00221654,0 -0.0044252,-1.5748e-005 -0.00662992,-5.11811e-005 -4.72441e-005,0.00222047 -7.08661e-005,0.00447244 -7.08661e-005,0.00675591 0,0.073685 0.0298661,0.140394 0.0781417,0.188673 0.0482795,0.0482756 0.114988,0.0781417 0.188673,0.0781417z"/>
  <path class="fil1" d="M3.84073 4.78296c0,0.117854 -0.0477756,0.224555 -0.12502,0.301799 -0.0035748,0.0035748 -0.0072126,0.00708661 -0.0109134,0.0105315 0.0090315,0.00570079 0.0184449,0.0108937 0.0281929,0.0155315 0.0345709,0.0164528 0.0733701,0.0256614 0.114445,0.0256614 0.073685,0 0.140398,-0.0298661 0.188673,-0.0781417 0.0482795,-0.0482795 0.0781457,-0.114988 0.0781457,-0.188673 0,-0.0277795 -0.00390551,-0.0538583 -0.0111575,-0.0777441 -0.00227953,-0.00751181 -0.0048937,-0.0148976 -0.00782283,-0.0221378 -0.0241732,0.00425197 -0.0490433,0.0064685 -0.0744331,0.0064685 -0.0653307,0 -0.127339,-0.0147598 -0.182874,-0.0411299 0.00182677,0.0158031 0.00276378,0.0317677 0.00276378,0.0478346z"/>
  <path class="fil1" d="M3.01938 4.94608c-0.0208031,-0.0502559 -0.0322835,-0.105343 -0.0322835,-0.163114 0,-0.0129488 0.000665354,-0.026189 0.00196457,-0.0396614 -0.0516181,-0.0216181 -0.0980906,-0.0530906 -0.137063,-0.0920591 -0.0178661,-0.0178661 -0.0341575,-0.037311 -0.0486457,-0.0581024 -0.000834646,-0.000181102 -0.00166929,-0.000366142 -0.00250394,-0.000551181 -0.00167717,0.00474409 -0.00322047,0.00954331 -0.00462205,0.0143898 -0.00662992,0.0229134 -0.010189,0.0478386 -0.010189,0.0743622 0,0.073685 0.0298661,0.140394 0.0781417,0.188673 0.0408504,0.0408465 0.0948976,0.0685157 0.155201,0.076063z"/>
  <path class="fil1" d="M2.96512 4.53812c0.0482795,0.0482756 0.114988,0.0781417 0.188673,0.0781417 0.0410748,0 0.079878,-0.00920866 0.114449,-0.0256614 0.00974409,-0.0046378 0.0191575,-0.00982677 0.028185,-0.0155276 -0.00369685,-0.00344488 -0.00733465,-0.00695669 -0.0109094,-0.0105315 -0.0772362,-0.0772441 -0.125016,-0.183945 -0.125016,-0.301799 0,-0.0046063 9.84252e-005,-0.0093189 0.000287402,-0.0141417 -0.0723976,-0.0136772 -0.138335,-0.0456417 -0.192831,-0.0909055 -0.0184961,0.0178071 -0.0343425,0.0381535 -0.046937,0.0604409 -0.0216693,0.0383465 -0.0340433,0.083126 -0.0340433,0.131315 0,0.0736811 0.0298661,0.140394 0.0781417,0.188669z"/>
  <path class="fil1" d="M3.39865 4.45141c0.0482795,0.0482756 0.114992,0.0781417 0.188673,0.0781417 0.073685,0 0.140398,-0.0298661 0.188673,-0.0781417 0.0320236,-0.0320236 0.0559449,-0.0721535 0.0684252,-0.117051 -0.0271732,0.00548819 -0.0551614,0.00837008 -0.083689,0.00837008 -0.11785,0 -0.224555,-0.0477795 -0.301799,-0.125016 -0.00465748,-0.00465748 -0.00920866,-0.0094252 -0.0136496,-0.0142953 -0.0188543,0.010374 -0.0385394,0.0193425 -0.0589173,0.0267638 -0.0212205,0.00772835 -0.0431339,0.0138346 -0.0655827,0.0181693 -0.000181102,0.00452362 -0.000275591,0.0093189 -0.000275591,0.0143858 0,0.073685 0.0298661,0.140394 0.0781417,0.188673z"/>
  <path class="fil1" d="M4.01414 4.26274c0,0.117854 -0.0477756,0.224555 -0.12502,0.301799 -0.0035748,0.0035748 -0.0072126,0.00708661 -0.0109094,0.0105315 0.0090315,0.00570079 0.0184409,0.0108898 0.028185,0.0155276 0.0345709,0.0164528 0.0733701,0.0256614 0.114445,0.0256614 0.073685,0 0.140398,-0.0298661 0.188673,-0.0781417 0.0482756,-0.0482756 0.0781417,-0.114984 0.0781417,-0.188669 0,-0.0344803 -0.00625197,-0.0669685 -0.0176378,-0.0963937 -0.00474803,-0.0122638 -0.0104134,-0.024122 -0.0169134,-0.0354921 -0.0490433,0.0196496 -0.102583,0.0304606 -0.158646,0.0304606 -0.0206378,0 -0.0409291,-0.00146457 -0.0607835,-0.00429528 -0.0063622,0.00529134 -0.0128858,0.0104094 -0.0195591,0.0153346 1.5748e-005,0.00126378 2.3622e-005,0.00248819 2.3622e-005,0.00367717z"/>
  <path class="fil1" d="M3.67402 3.66251c0.073685,0 0.140398,-0.0298661 0.188677,-0.0781417 0.0482756,-0.0482756 0.0781417,-0.114988 0.0781417,-0.188673 0,-0.0436142 -0.0103898,-0.084685 -0.028811,-0.120862 -0.0135354,-0.0265827 -0.031185,-0.0505039 -0.0520433,-0.0708661 -0.0318504,0.00759055 -0.0650866,0.0116063 -0.0992598,0.0116063 -0.0622638,0 -0.121638,-0.0135039 -0.175339,-0.037748 -0.0123425,-0.00557087 -0.024378,-0.0117244 -0.0360709,-0.0184213 -0.0373583,0.0198228 -0.0695551,0.0483858 -0.0939016,0.0830118 -0.0303701,0.0432008 -0.0482087,0.0960591 -0.0482087,0.15328 0,0.073685 0.0298661,0.140398 0.0781417,0.188673 0.0482795,0.0482756 0.114988,0.0781417 0.188673,0.0781417z"/>
  <path class="fil1" d="M3.66764 3.82246c-0.0510197,-0.000748031 -0.099874,-0.0104488 -0.145059,-0.0276024 -0.00482677,0.00952362 -0.00911811,0.0193976 -0.0128268,0.0295787 -0.010248,0.0281339 -0.0158425,0.0589291 -0.0158425,0.0914803 0,0.073685 0.0298661,0.140394 0.0781417,0.188673 0.0482795,0.0482756 0.114992,0.0781417 0.188673,0.0781417 0.0304449,0 0.059378,-0.00488189 0.0860669,-0.013878 -0.0193031,-0.0137795 -0.0374094,-0.029122 -0.0541378,-0.0458465 -0.0769646,-0.0769724 -0.124677,-0.183189 -0.125016,-0.300547z"/>
  <path class="fil1" d="M3.82764 3.82121c0,0.073685 0.0298661,0.140394 0.0781417,0.188673 0.0482795,0.0482756 0.114992,0.0781417 0.188673,0.0781417 0.073685,0 0.140398,-0.0298661 0.188673,-0.0781417 0.0482756,-0.0482795 0.0781417,-0.114988 0.0781417,-0.188673 0,-0.0419016 -0.00944488,-0.0812677 -0.0262795,-0.116087 -0.0118425,-0.0244843 -0.0273701,-0.0469252 -0.045874,-0.0666102 -0.0305118,0.0069252 -0.0622598,0.0105827 -0.0948661,0.0105827 -0.0423898,0 -0.0840591,-0.00652756 -0.124,-0.0186496 -0.0110394,-0.00335039 -0.021878,-0.00712992 -0.0325,-0.0113189 -0.0175551,0.0285157 -0.0383701,0.054811 -0.0619252,0.0783661 -0.0414567,0.0414528 -0.0914055,0.0744213 -0.147004,0.0960748 -0.000779528,0.00827165 -0.0011811,0.0174803 -0.0011811,0.0276417z"/>
  <path class="fil1" d="M3.33391 3.91592c0,-0.0508189 0.00912598,-0.0999646 0.0258425,-0.145858 0.00742126,-0.020378 0.0163898,-0.040063 0.0267638,-0.0589173 -0.00487008,-0.00444094 -0.0096378,-0.00899213 -0.0142953,-0.0136496 -0.00466142,-0.00466142 -0.0092126,-0.00942913 -0.0136575,-0.0142992 -0.0188543,0.010374 -0.0385394,0.0193425 -0.0589173,0.0267638 -0.0458937,0.0167165 -0.0950354,0.0258425 -0.145854,0.0258425 -0.0533268,0 -0.10437,-0.00978346 -0.151433,-0.0276496 -0.00483071,0.00952756 -0.00912205,0.0194016 -0.0128307,0.0295866 -0.010252,0.0281378 -0.0158465,0.0589331 -0.0158465,0.0914843 0,0.0736811 0.0298661,0.140394 0.0781417,0.188669 0.0482795,0.0482756 0.114988,0.0781417 0.188673,0.0781417 0.0325512,0 0.0633425,-0.00559449 0.0914843,-0.0158465 0.0101811,-0.00370866 0.0200551,-0.008 0.0295787,-0.0128307 -0.0178661,-0.0470669 -0.0276496,-0.0981102 -0.0276496,-0.151437z"/>
  <path class="fil1" d="M3.1538 3.5758c0.0325512,0 0.0633425,-0.00559449 0.0914764,-0.0158425 0.010185,-0.00370866 0.0200591,-0.008 0.0295866,-0.0128307 -0.0178661,-0.047063 -0.0276496,-0.0981063 -0.0276496,-0.151433 0,-0.065315 0.0147677,-0.127287 0.0411575,-0.182768 -0.0157126,0.00175197 -0.031685,0.00265354 -0.0478661,0.00265354 -0.103614,0 -0.19861,-0.0369331 -0.272543,-0.0983425 -0.0184921,0.0178071 -0.0343386,0.0381535 -0.0469331,0.060437 -0.0216693,0.0383465 -0.0340433,0.083126 -0.0340433,0.131311 0,0.0736811 0.0298661,0.140394 0.0781417,0.188673 0.0482795,0.0482756 0.114988,0.0781417 0.188673,0.0781417z"/>
  <path class="fil1" d="M2.83953 3.68336c0.00742126,-0.0203819 0.0163898,-0.0400669 0.0267638,-0.0589213 -0.00487008,-0.00444094 -0.0096378,-0.00899213 -0.0142992,-0.0136535 -0.0175394,-0.0175433 -0.033563,-0.0366063 -0.0478504,-0.0569724 -0.00264961,0.000527559 -0.00531102,0.00103543 -0.00798031,0.00151575 -0.0257598,0.0046378 -0.0511614,0.00706693 -0.0758976,0.00706693 -0.0533228,0 -0.104362,-0.00977953 -0.151425,-0.0276457 -0.00483071,0.00952756 -0.00912205,0.0194016 -0.0128307,0.0295866 -0.010252,0.0281339 -0.0158465,0.0589252 -0.0158465,0.0914724 0,0.073685 0.0298661,0.140394 0.0781417,0.188673 0.0482756,0.0482756 0.114988,0.0781417 0.188669,0.0781417 0.00579134,0 0.0114134,-0.000149606 0.0168622,-0.000440945 -0.00664567,-0.0299252 -0.0101535,-0.0610354 -0.0101535,-0.0929606 0,-0.0508189 0.00912598,-0.0999646 0.0258465,-0.145862z"/>
  <path class="fil1" d="M2.80698 4.08262c-0.0533268,0 -0.10437,-0.00978346 -0.151437,-0.0276496 -0.00482677,0.00952362 -0.00911811,0.0193976 -0.0128268,0.0295787 -0.010252,0.0281417 -0.0158465,0.0589331 -0.0158465,0.0914843 0,0.0681496 0.025252,0.13015 0.0668346,0.177079 0.0105866,0.0119488 0.0222441,0.0229409 0.0348189,0.0328268 -0.00101969,-0.0120276 -0.00153937,-0.0242008 -0.00153937,-0.0364921 0,-0.0756575 0.0200945,-0.147154 0.0552953,-0.209441 0.0114882,-0.0203268 0.0245512,-0.0396024 0.0390157,-0.0576535 -0.00479528,0.000177165 -0.00956693,0.000267717 -0.014315,0.000267717z"/>
  <path class="fil1" d="M2.53159 3.32425c0.0482795,0.0482756 0.114988,0.0781417 0.188673,0.0781417 0.00579134,0 0.0114173,-0.000149606 0.0168701,-0.000440945 -0.00664961,-0.0299291 -0.0101575,-0.0610394 -0.0101575,-0.0929685 0,-0.0756614 0.0200945,-0.14715 0.0552953,-0.209437 0.0192756,-0.0341024 0.0429803,-0.0652441 0.070311,-0.0926102 -0.0213583,0.00327559 -0.0427677,0.00497638 -0.0640709,0.00497638 -0.090874,0 -0.175169,-0.0285118 -0.244449,-0.0770945 -0.0217362,0.0191575 -0.0403858,0.0418543 -0.0550669,0.0672047 -0.0226063,0.0390315 -0.0355472,0.0846378 -0.0355472,0.133555 0,0.073685 0.0298661,0.140398 0.0781417,0.188673z"/>
  <path class="fil1" d="M2.97369 2.78876c0,0.0736811 0.0298661,0.140394 0.0781417,0.188673 0.0482795,0.0482756 0.114988,0.0781417 0.188673,0.0781417 0.073685,0 0.140398,-0.0298661 0.188673,-0.0781417 0.0482756,-0.0482795 0.0781417,-0.114988 0.0781417,-0.188673 0,-0.0242362 -0.00311811,-0.0474528 -0.00895669,-0.0692677 -0.00256693,-0.00959843 -0.0056378,-0.0189528 -0.00917323,-0.0280315 -0.0839606,-0.0120118 -0.159157,-0.0512283 -0.216366,-0.108433 -0.0171732,-0.0171732 -0.0327244,-0.0359685 -0.0464094,-0.0561378 -0.0144606,0.00637008 -0.0293622,0.0120236 -0.0446496,0.0169094 -0.0267441,0.00854724 -0.054315,0.014689 -0.0824331,0.0181614 -0.0361575,0.0225787 -0.0665787,0.0537047 -0.0884882,0.0905945 -0.0235984,0.0397441 -0.0371535,0.086311 -0.0371535,0.136205z"/>
  <path class="fil1" d="M2.81369 2.78876c0,-0.0792795 0.0217598,-0.15365 0.0596496,-0.217457 0.00654724,-0.0110236 0.0135787,-0.0217244 0.0210709,-0.0320827 -0.0219606,-0.00785039 -0.0431299,-0.0173701 -0.0633583,-0.0283976 -0.0245906,0.0404449 -0.0564252,0.075937 -0.0936811,0.104657 -0.054752,0.0422165 -0.121004,0.0700079 -0.193051,0.0776929 0.014685,0.0331535 0.035937,0.0627598 0.0620984,0.0871614 0.0476024,0.0444016 0.111614,0.0715748 0.182102,0.0715748 0.0102402,0 0.0201102,-0.000507874 0.0295906,-0.00149606 -0.00291339,-0.0201299 -0.00442126,-0.0407165 -0.00442126,-0.0616535z"/>
  <path class="fil1" d="M3.65309 2.67959c0.00927559,0.0351024 0.0142205,0.0717087 0.0142205,0.109169 0,0.0798465 -0.0219331,0.154575 -0.0600945,0.218488 0.013685,0.00960236 0.0283386,0.0179724 0.0437913,0.0249488 0.033248,0.0150118 0.070378,0.0233701 0.109717,0.0233701 0.073685,0 0.140398,-0.0298661 0.188673,-0.0781417 0.0482756,-0.0482795 0.0781417,-0.114988 0.0781417,-0.188673 0,-0.0243504 -0.00323228,-0.047874 -0.00928346,-0.0701496 -0.00217717,-0.00800787 -0.00466929,-0.0158071 -0.00746063,-0.0233819 -0.0544567,-0.00129528 -0.106862,-0.0130787 -0.155256,-0.0334409 -0.0283976,-0.0119488 -0.055189,-0.0268268 -0.0799803,-0.0442559 -0.0363071,0.0275551 -0.0776811,0.0487913 -0.122469,0.0620669z"/>
  <path class="fil1" d="M4.13713 2.99015c-0.0198858,0.0370866 -0.0450945,0.0708976 -0.0746024,0.100409 -0.0158976,0.0158976 -0.0330433,0.0305472 -0.0512795,0.0437913 0.0165276,0.0211969 0.0310472,0.0439488 0.0432874,0.0679803 0.0296063,0.0581457 0.0463071,0.12387 0.0463071,0.193366 0,0.0253858 -0.00221654,0.0502559 -0.0064685,0.0744252 0.00724016,0.00292913 0.014622,0.00554331 0.0221299,0.00782283 0.0238858,0.00724803 0.0499685,0.0111535 0.077748,0.0111535 0.073685,0 0.140398,-0.0298661 0.188673,-0.0781417 0.0482795,-0.0482795 0.0781457,-0.114988 0.0781457,-0.188673 0,-0.0469488 -0.0119961,-0.090937 -0.0330669,-0.129055 -0.0168583,-0.0305039 -0.0394961,-0.0573504 -0.0664291,-0.0790512 -0.0228071,0.00388189 -0.0462441,0.00590157 -0.0701535,0.00590157 -0.043752,0 -0.0864488,-0.00704331 -0.126988,-0.0200748 -0.00924016,-0.0029685 -0.0183465,-0.00625984 -0.0273031,-0.00985433z"/>
  <path class="fil1" d="M4.21318 2.84813c0.024126,0.00775591 0.0504016,0.0119488 0.0782402,0.0119488 0.0704724,0 0.13428,-0.028563 0.180453,-0.0747362 0.0461732,-0.0461732 0.0747402,-0.109976 0.0747402,-0.180449 0,-0.060063 -0.0205591,-0.11513 -0.0549764,-0.1585 -0.0173622,-0.021878 -0.038185,-0.0408386 -0.061622,-0.0560394 -0.0204803,0.068878 -0.057878,0.130476 -0.107374,0.179976 -0.0427795,0.0427795 -0.0946024,0.0765236 -0.15235,0.0981142 0.000811024,0.00275591 0.00159449,0.00551969 0.00234646,0.00829134 0.00971654,0.0357717 0.0149055,0.0733346 0.0149055,0.112024 0,0.0163504 -0.00092126,0.0324843 -0.00270866,0.0483543 0.00915748,0.00420472 0.018622,0.00788976 0.0283465,0.0110157z"/>
  <path class="fil1" d="M4.02084 2.53534c0.073685,0 0.140398,-0.0298661 0.188673,-0.0781417 0.0482756,-0.0482795 0.0781417,-0.114988 0.0781417,-0.188673 0,-0.073685 -0.0298661,-0.140398 -0.0781417,-0.188673 -0.0482756,-0.0482756 -0.114988,-0.0781417 -0.188673,-0.0781417 -0.0452835,0 -0.0878661,0.0112283 -0.125114,0.0310354 -0.0195039,0.0103701 -0.037563,0.0230787 -0.0538031,0.037748 0.0534646,0.0659134 0.0855039,0.149913 0.0855039,0.24139 0,0.0666457 -0.0170079,0.129327 -0.0469173,0.183933 0.0117559,0.00730315 0.0240866,0.0136969 0.0369055,0.0190906 0.0312677,0.0131535 0.0661929,0.0204331 0.103425,0.0204331z"/>
  <path class="fil1" d="M3.70198 2.46991c0.0404331,-0.0404331 0.0654449,-0.0963071 0.0654449,-0.15802 0,-0.0617126 -0.0250118,-0.117587 -0.0654449,-0.15802 -0.0404331,-0.0404331 -0.0963071,-0.0654449 -0.15802,-0.0654449 -0.0617126,0 -0.117587,0.0250118 -0.15802,0.0654449 -0.0404331,0.0404331 -0.0654449,0.0963071 -0.0654449,0.15802 0,0.0617126 0.0250118,0.117587 0.0654449,0.15802 0.0404331,0.0404291 0.0963071,0.0654449 0.15802,0.0654449 0.0617126,0 0.117587,-0.0250157 0.15802,-0.0654449z"/>
  <path class="fil1" d="M2.70515 2.40897c-0.0674567,-0.0784882 -0.108228,-0.180579 -0.108228,-0.292173 0,-0.00275591 2.3622e-005,-0.00550394 7.48031e-005,-0.00824409 -0.0080315,-0.00369291 -0.0163268,-0.00692913 -0.0248543,-0.00967323 -0.0211063,-0.00679134 -0.0441535,-0.0104646 -0.0686339,-0.0104646 -0.0617126,0 -0.117587,0.0250118 -0.15802,0.0654449 -0.0404331,0.0404331 -0.0654449,0.0963071 -0.0654449,0.15802 0,0.0617126 0.0250118,0.117587 0.0654449,0.15802 0.0404331,0.0404291 0.0963071,0.0654449 0.15802,0.0654449 0.0515827,0 0.0988583,-0.0172008 0.136354,-0.0461102 0.0275866,-0.0212677 0.050063,-0.0487402 0.0652874,-0.0802638z"/>
  <path class="fil1" d="M2.75692 2.1168c0,0.0796693 0.0322913,0.151799 0.0844921,0.204 0.0522008,0.0522008 0.124335,0.0844921 0.204004,0.0844921 0.0314606,0 0.0610787,-0.00468504 0.0882165,-0.0133583 0.0111811,-0.00357087 0.0221142,-0.00785433 0.0327441,-0.0127953 -0.0038622,-0.0218346 -0.00587795,-0.0443071 -0.00587795,-0.067248 0,-0.105882 0.0429252,-0.201752 0.112319,-0.271146 0.0123346,-0.0123346 0.0255079,-0.0238346 0.0394213,-0.0344055 -0.0185118,-0.0446969 -0.0479331,-0.0837402 -0.0849409,-0.113811 -0.0494173,-0.0401535 -0.112705,-0.0642244 -0.181882,-0.0642244 -0.0796693,0 -0.151803,0.0322913 -0.204004,0.0844921 -0.0522008,0.0522008 -0.0844921,0.124335 -0.0844921,0.204004z"/>
 </g>
 <rect class="fil2" width="6.82666" height="6.82666"/>
</svg>
