<?xml version="1.0" encoding="UTF-8"?>
<!DOCTYPE svg PUBLIC "-//W3C//DTD SVG 1.1//EN" "http://www.w3.org/Graphics/SVG/1.1/DTD/svg11.dtd">
<!-- Creator: CorelDRAW -->
<svg xmlns="http://www.w3.org/2000/svg" xml:space="preserve" width="6.82666in" height="6.82666in" style="shape-rendering:geometricPrecision; text-rendering:geometricPrecision; image-rendering:optimizeQuality; fill-rule:evenodd; clip-rule:evenodd"
viewBox="0 0 6.82666 6.82666"
 xmlns:xlink="http://www.w3.org/1999/xlink">
 <defs>
  <style type="text/css">
   <![CDATA[
    .fil4 {fill:none}
    .fil1 {fill:#333333}
    .fil3 {fill:#AED581}
    .fil2 {fill:#F45A52}
    .fil0 {fill:#333333;fill-rule:nonzero}
   ]]>
  </style>
 </defs>
 <g id="Layer_x0020_1">
  <metadata id="CorelCorpID_0Corel-Layer"/>
  <g id="_625949088">
   <path id="_627489328" class="fil0" d="M5.97333 2.17333c0,0.706913 -0.286539,1.34692 -0.749811,1.81019 -0.463272,0.463272 -1.10327,0.749811 -1.81019,0.749811 -0.706917,0 -1.34692,-0.286539 -1.81019,-0.749811 -0.463272,-0.463272 -0.749811,-1.10328 -0.749811,-1.81019 0,-0.0441811 0.0358189,-0.08 0.08,-0.08l4.96 0c0.0441811,0 0.08,0.0358189 0.08,0.08zm-0.862937 1.69706c0.41676,-0.41676 0.680913,-0.986118 0.701583,-1.61706l-4.79729 0c0.0206693,0.630945 0.284823,1.2003 0.701583,1.61706 0.434307,0.434307 1.03431,0.702937 1.69706,0.702937 0.662748,0 1.26276,-0.26863 1.69706,-0.702937z"/>
   <path id="_627489232" class="fil0" d="M5.52 2.17333c0,-0.0441811 -0.0358189,-0.08 -0.08,-0.08 -0.0441811,0 -0.08,0.0358189 -0.08,0.08 0,0.537563 -0.21789,1.02424 -0.570161,1.37651 -0.352268,0.352272 -0.838945,0.570161 -1.37651,0.570161 -0.537563,0 -1.02424,-0.21789 -1.37651,-0.570161 -0.352272,-0.352272 -0.570161,-0.838945 -0.570161,-1.37651 0,-0.0441811 -0.0358189,-0.08 -0.08,-0.08 -0.0441811,0 -0.08,0.0358189 -0.08,0.08 0,0.581732 0.235799,1.1084 0.617035,1.48963 0.381228,0.381232 0.907902,0.617035 1.48963,0.617035 0.581732,0 1.10841,-0.235803 1.48963,-0.617035 0.381236,-0.381236 0.617035,-0.907902 0.617035,-1.48963z"/>
   <path id="_627489760" class="fil1" d="M3.41358 4.00904c0.044185,-0.000129921 0.0799213,-0.0268228 0.0797441,-0.0880039 -0.000177165,-0.0611772 -0.0428661,-0.117799 -0.0804803,-0.165039 -0.039563,0.0496732 -0.0796969,0.104327 -0.0795197,0.165508 0.000177165,0.0611772 0.0360709,0.0876614 0.0802559,0.0875354z"/>
   <path id="_627489688" class="fil1" d="M3.88869 3.94643c0.0426457,-0.0115591 0.0702598,-0.0465945 0.054252,-0.105642 -0.0160039,-0.0590472 -0.0718937,-0.102689 -0.120453,-0.138587 -0.0253583,0.0582205 -0.0499803,0.121402 -0.0339764,0.180449 0.0160079,0.0590472 0.0575354,0.0753425 0.100177,0.0637795z"/>
   <path id="_627489520" class="fil1" d="M4.33141 3.76298c0.0382008,-0.0222008 0.0558031,-0.063189 0.0250591,-0.116083 -0.0307441,-0.0528937 -0.0960236,-0.0805827 -0.15222,-0.102689 -0.0094252,0.0628031 -0.0168543,0.130201 0.0138898,0.183094 0.0307402,0.0528898 0.0750709,0.0578819 0.113272,0.0356772z"/>
   <path id="_627488800" class="fil1" d="M4.71155 3.4712c0.0311535,-0.0313346 0.0375472,-0.0754803 -0.00583465,-0.118614 -0.0433858,-0.0431339 -0.11361,-0.0529843 -0.17361,-0.0597913 0.00714567,0.0630984 0.0174134,0.130126 0.0607992,0.17326 0.0433858,0.0431299 0.0874961,0.0364803 0.118646,0.00514567z"/>
   <path id="_627488608" class="fil1" d="M5.00323 3.09097c0.0219803,-0.0383268 0.0167323,-0.082626 -0.0363386,-0.113063 -0.0530709,-0.0304331 -0.123449,-0.0217756 -0.183169,-0.0128189 0.0232362,0.0590984 0.0505,0.121181 0.103571,0.151618 0.0530709,0.0304331 0.0939567,0.0125906 0.115937,-0.0257362z"/>
   <path id="_627488656" class="fil1" d="M5.18656 2.6482c0.011311,-0.0427126 -0.00522441,-0.0841417 -0.0643661,-0.0998031 -0.0591378,-0.0156654 -0.124878,0.0109173 -0.180248,0.0350236 0.0377441,0.0510709 0.0801457,0.103984 0.139287,0.119646 0.0591378,0.0156614 0.0940118,-0.0121535 0.105327,-0.0548661z"/>
   <path id="_627488416" class="fil1" d="M2.93846 3.94656c0.0427126,0.011311 0.0841417,-0.00522441 0.0998031,-0.0643661 0.0156654,-0.0591378 -0.0109173,-0.124878 -0.0350236,-0.180248 -0.0510709,0.0377441 -0.103984,0.0801457 -0.119646,0.139287 -0.0156614,0.0591378 0.0121535,0.0940118 0.0548661,0.105327z"/>
   <path id="_627489112" class="fil1" d="M2.49569 3.76323c0.0383268,0.0219803 0.082626,0.0167323 0.113063,-0.0363386 0.0304331,-0.0530709 0.0217756,-0.123449 0.0128189,-0.183169 -0.0590984,0.0232362 -0.121181,0.0505 -0.151618,0.103571 -0.0304331,0.0530709 -0.0125906,0.0939567 0.0257362,0.115937z"/>
   <path id="_625954536" class="fil1" d="M2.11546 3.47155c0.0313346,0.0311535 0.0754803,0.0375472 0.118614,-0.00583465 0.0431339,-0.0433858 0.0529843,-0.11361 0.0597913,-0.17361 -0.0630984,0.00714567 -0.130126,0.0174134 -0.17326,0.0607992 -0.0431299,0.0433858 -0.0364803,0.0874961 -0.00514567,0.118646z"/>
   <path id="_625950792" class="fil1" d="M1.82369 3.09141c0.0222008,0.0382008 0.063189,0.0558031 0.116083,0.0250591 0.0528937,-0.0307441 0.0805827,-0.0960236 0.102689,-0.15222 -0.0628031,-0.0094252 -0.130201,-0.0168543 -0.183094,0.0138898 -0.0528898,0.0307402 -0.0578819,0.0750709 -0.0356772,0.113272z"/>
   <path id="_625950720" class="fil1" d="M1.60348 2.59859c0.0115591,0.0426457 0.0465945,0.0702598 0.105642,0.054252 0.0590472,-0.0160039 0.102689,-0.0718937 0.138587,-0.120453 -0.0582205,-0.0253583 -0.121402,-0.0499803 -0.180449,-0.0339764 -0.0590472,0.0160079 -0.0753425,0.0575354 -0.0637795,0.100177z"/>
   <path id="_625951320" class="fil1" d="M4.72461 2.54072c0.011311,-0.0427126 -0.00522441,-0.0841417 -0.0643661,-0.0998031 -0.0591378,-0.0156654 -0.124878,0.0109173 -0.180248,0.0350236 0.0377441,0.0510709 0.0801457,0.103984 0.139287,0.119646 0.0591378,0.0156614 0.0940118,-0.0121535 0.105327,-0.0548661z"/>
   <path id="_625951296" class="fil1" d="M4.26919 3.28276c0.0311535,-0.0313346 0.0375472,-0.0754803 -0.00583465,-0.118614 -0.0433858,-0.0431339 -0.11361,-0.0529843 -0.17361,-0.0597913 0.00714567,0.0630984 0.0174134,0.130126 0.0607992,0.17326 0.0433858,0.0431299 0.0874961,0.0364803 0.118646,0.00514567z"/>
   <path id="_625949976" class="fil1" d="M3.62526 3.59089c0.0426457,-0.0115591 0.0702598,-0.0465945 0.054252,-0.105642 -0.0160039,-0.0590472 -0.0718937,-0.102689 -0.120453,-0.138587 -0.0253583,0.0582205 -0.0499803,0.121402 -0.0339764,0.180449 0.0160079,0.0590472 0.0575354,0.0753425 0.100177,0.0637795z"/>
   <path id="_625949904" class="fil1" d="M2.81448 3.5478c0.0383268,0.0219803 0.082626,0.0167323 0.113063,-0.0363386 0.0304331,-0.0530709 0.0217756,-0.123449 0.0128189,-0.183169 -0.0590984,0.0232362 -0.121181,0.0505 -0.151618,0.103571 -0.0304331,0.0530709 -0.0125906,0.0939567 0.0257362,0.115937z"/>
   <path id="_625949928" class="fil1" d="M2.03015 2.70526c0.0115591,0.0426457 0.0465945,0.0702598 0.105642,0.054252 0.0590472,-0.0160039 0.102689,-0.0718937 0.138587,-0.120453 -0.0582205,-0.0253583 -0.121402,-0.0499803 -0.180449,-0.0339764 -0.0590472,0.0160079 -0.0753425,0.0575354 -0.0637795,0.100177z"/>
   <path id="_625950264" class="fil1" d="M2.53238 3.2278c0.0383268,0.0219803 0.082626,0.0167323 0.113063,-0.0363386 0.0304331,-0.0530709 0.0217756,-0.123449 0.0128189,-0.183169 -0.0590984,0.0232362 -0.121181,0.0505 -0.151618,0.103571 -0.0304331,0.0530709 -0.0125906,0.0939567 0.0257362,0.115937z"/>
   <path id="_625950024" class="fil1" d="M3.27559 3.28902c0.0383268,0.0219803 0.082626,0.0167323 0.113063,-0.0363386 0.0304331,-0.0530709 0.0217756,-0.123449 0.0128189,-0.183169 -0.0590984,0.0232362 -0.121181,0.0505 -0.151618,0.103571 -0.0304331,0.0530709 -0.0125906,0.0939567 0.0257362,0.115937z"/>
   <path id="_625949232" class="fil1" d="M3.79885 3.1395c-0.0383268,0.0219803 -0.082626,0.0167323 -0.113063,-0.0363386 -0.0304331,-0.0530709 -0.0217756,-0.123449 -0.0128189,-0.183169 0.0590984,0.0232362 0.121181,0.0505 0.151618,0.103571 0.0304331,0.0530709 0.0125906,0.0939567 -0.0257362,0.115937z"/>
   <path id="_625949568" class="fil1" d="M4.33813 2.80877c0.0311535,-0.0313346 0.0375472,-0.0754803 -0.00583465,-0.118614 -0.0433858,-0.0431339 -0.11361,-0.0529843 -0.17361,-0.0597913 0.00714567,0.0630984 0.0174134,0.130126 0.0607992,0.17326 0.0433858,0.0431299 0.0874961,0.0364803 0.118646,0.00514567z"/>
   <path id="_625949688" class="fil1" d="M3.93508 2.61937c0.0311535,-0.0313346 0.0375472,-0.0754803 -0.00583465,-0.118614 -0.0433858,-0.0431339 -0.11361,-0.0529843 -0.17361,-0.0597913 0.00714567,0.0630984 0.0174134,0.130126 0.0607992,0.17326 0.0433858,0.0431299 0.0874961,0.0364803 0.118646,0.00514567z"/>
   <path id="_625949208" class="fil1" d="M2.38411 2.52456c0.0115591,0.0426457 0.0465945,0.0702598 0.105642,0.054252 0.0590472,-0.0160039 0.102689,-0.0718937 0.138587,-0.120453 -0.0582205,-0.0253583 -0.121402,-0.0499803 -0.180449,-0.0339764 -0.0590472,0.0160079 -0.0753425,0.0575354 -0.0637795,0.100177z"/>
   <path id="_625948488" class="fil1" d="M2.71464 2.7438c0.0327913,0.0296102 0.0771969,0.033878 0.118197,-0.0115276 0.041,-0.0454055 0.0474685,-0.116024 0.0513898,-0.17628 -0.062685,0.0101693 -0.129142,0.0236417 -0.170142,0.0690472 -0.041,0.0454055 -0.0322362,0.0891457 0.000555118,0.11876z"/>
   <path id="_625948680" class="fil1" d="M3.07776 2.92943c0.0383268,0.0219803 0.082626,0.0167323 0.113063,-0.0363386 0.0304331,-0.0530709 0.0217756,-0.123449 0.0128189,-0.183169 -0.0590984,0.0232362 -0.121181,0.0505 -0.151618,0.103571 -0.0304331,0.0530709 -0.0125906,0.0939567 0.0257362,0.115937z"/>
   <path id="_625948560" class="fil1" d="M3.41359 2.61985c0.044185,-0.000129921 0.0799213,-0.0268228 0.0797441,-0.0880039 -0.000177165,-0.0611772 -0.0428661,-0.117799 -0.0804803,-0.165039 -0.039563,0.0496732 -0.0796969,0.104327 -0.0795197,0.165508 0.000177165,0.0611772 0.0360709,0.0876614 0.0802559,0.0875354z"/>
  </g>
  <path class="fil2" d="M3.49333 2.53184c0.000177165,0.0611811 -0.0355591,0.087874 -0.0797441,0.0880039 -0.044185,0.000125984 -0.0800787,-0.0263583 -0.0802559,-0.0875354 -0.000177165,-0.0611811 0.0399567,-0.115835 0.0795197,-0.165508 0.0376142,0.0472402 0.0803031,0.103862 0.0804803,0.165039zm0.441744 0.0875276c-0.0311496,0.0313346 -0.0752598,0.0379843 -0.118646,-0.00514567 -0.0433858,-0.0431339 -0.0536535,-0.110161 -0.0607992,-0.17326 0.06,0.00680709 0.130224,0.0166575 0.17361,0.0597913 0.0433819,0.0431339 0.0369882,0.0872795 0.00583465,0.118614zm1.42331 -0.366039l-3.89011 0c0.0204409,0.505748 0.233835,0.961795 0.568547,1.29651 0.352268,0.352272 0.838945,0.570161 1.37651,0.570161 0.537563,0 1.02424,-0.21789 1.37651,-0.570161 0.334713,-0.334713 0.548106,-0.79076 0.568547,-1.29651zm-1.1389 0.550291c-0.0433858,-0.0431339 -0.0536535,-0.110161 -0.0607992,-0.17326 0.06,0.00680709 0.130224,0.0166575 0.17361,0.0597913 0.0433819,0.0431339 0.0369882,0.0872795 0.00583465,0.118614 -0.0311496,0.0313346 -0.0752598,0.0379843 -0.118646,-0.00514567zm0.399803 -0.208039c-0.0591417,-0.0156614 -0.101543,-0.0685748 -0.139287,-0.119646 0.0553701,-0.0241063 0.12111,-0.050689 0.180248,-0.0350236 0.0591417,0.0156614 0.0756772,0.0570906 0.0643661,0.0998031 -0.011315,0.0427126 -0.046189,0.0705276 -0.105327,0.0548661zm-1.41565 0.114335c0.00895669,0.0597205 0.0176142,0.130098 -0.0128189,0.183169 -0.030437,0.0530709 -0.0747362,0.0583189 -0.113063,0.0363386 -0.0383268,-0.0219803 -0.0561693,-0.0628661 -0.0257362,-0.115937 0.030437,-0.0530709 0.0925197,-0.0803346 0.151618,-0.103571zm-0.370799 0.0223583c-0.041,0.0454055 -0.0854055,0.0411378 -0.118197,0.0115276 -0.0327913,-0.0296142 -0.0415551,-0.0733543 -0.000555118,-0.11876 0.041,-0.0454055 0.107457,-0.058878 0.170142,-0.0690472 -0.00392126,0.0602559 -0.0103898,0.130874 -0.0513898,0.17628zm-0.558465 -0.0932205c-0.0358976,0.0485591 -0.0795394,0.104449 -0.138587,0.120453 -0.0590472,0.0160079 -0.0940827,-0.0116063 -0.105642,-0.054252 -0.011563,-0.0426417 0.00473228,-0.0841693 0.0637795,-0.100177 0.0590472,-0.0160039 0.122228,0.00861811 0.180449,0.0339764zm0.665984 0.689236c0.00895669,0.0597205 0.0176142,0.130098 -0.0128189,0.183169 -0.030437,0.0530709 -0.0747362,0.0583189 -0.113063,0.0363386 -0.0383268,-0.0219803 -0.0561693,-0.0628661 -0.0257362,-0.115937 0.030437,-0.0530709 0.0925197,-0.0803346 0.151618,-0.103571zm0.618705 0.018374c0.0485591,0.0358976 0.104449,0.0795394 0.120453,0.138587 0.0160079,0.0590472 -0.0116063,0.0940827 -0.054252,0.105642 -0.0426417,0.011563 -0.0841693,-0.00473228 -0.100177,-0.0637795 -0.0160039,-0.0590472 0.00861811,-0.122228 0.0339764,-0.180449zm1.52217 -0.643594c-0.0591417,-0.0156614 -0.101543,-0.0685748 -0.139287,-0.119646 0.0553701,-0.0241063 0.12111,-0.050689 0.180248,-0.0350236 0.0591417,0.0156614 0.0756772,0.0570906 0.0643661,0.0998031 -0.011315,0.0427126 -0.046189,0.0705276 -0.105327,0.0548661zm-3.23352 -0.170685c-0.0358976,0.0485591 -0.0795394,0.104449 -0.138587,0.120453 -0.0590472,0.0160079 -0.0940827,-0.0116063 -0.105642,-0.054252 -0.011563,-0.0426417 0.00473228,-0.0841693 0.0637795,-0.100177 0.0590472,-0.0160039 0.122228,0.00861811 0.180449,0.0339764zm0.194748 0.431858c-0.0221063,0.0561969 -0.0497953,0.121476 -0.102689,0.15222 -0.0528937,0.0307441 -0.0938819,0.0131417 -0.116083,-0.0250591 -0.0222047,-0.0382008 -0.0172126,-0.0825315 0.0356772,-0.113272 0.0528937,-0.0307441 0.120291,-0.023315 0.183094,-0.0138898zm0.579118 0.579476c0.00895669,0.0597205 0.0176142,0.130098 -0.0128189,0.183169 -0.030437,0.0530709 -0.0747362,0.0583189 -0.113063,0.0363386 -0.0383268,-0.0219803 -0.0561693,-0.0628661 -0.0257362,-0.115937 0.030437,-0.0530709 0.0925197,-0.0803346 0.151618,-0.103571zm0.628283 -0.370638c0.030437,-0.0530709 0.0925197,-0.0803346 0.151618,-0.103571 0.00895669,0.0597205 0.0176142,0.130098 -0.0128189,0.183169 -0.030437,0.0530709 -0.0747362,0.0583189 -0.113063,0.0363386 -0.0383268,-0.0219803 -0.0561693,-0.0628661 -0.0257362,-0.115937zm-0.246622 0.528862c0.0241063,0.0553701 0.050689,0.12111 0.0350236,0.180248 -0.0156614,0.0591417 -0.0570906,0.0756772 -0.0998031,0.0643661 -0.0427126,-0.011315 -0.0705276,-0.046189 -0.0548661,-0.105327 0.0156614,-0.0591417 0.0685748,-0.101543 0.119646,-0.139287zm0.40961 0.0540551c0.0376142,0.0472402 0.0803031,0.103862 0.0804803,0.165039 0.000177165,0.0611811 -0.0355591,0.087874 -0.0797441,0.0880039 -0.044185,0.000125984 -0.0800787,-0.0263583 -0.0802559,-0.0875354 -0.000177165,-0.0611811 0.0399567,-0.115835 0.0795197,-0.165508zm0.272945 -0.652835c-0.0304331,-0.0530709 -0.0217756,-0.123449 -0.0128189,-0.183169 0.0590984,0.0232362 0.121181,0.0505 0.151618,0.103571 0.0304331,0.0530709 0.0125906,0.0939567 -0.0257362,0.115937 -0.0383268,0.0219803 -0.082626,0.0167323 -0.113063,-0.0363386zm0.532343 0.624134c-0.0307441,-0.0528937 -0.023315,-0.120291 -0.0138898,-0.183094 0.0561969,0.0221063 0.121476,0.0497953 0.15222,0.102689 0.0307441,0.0528937 0.0131417,0.0938819 -0.0250591,0.116083 -0.0382008,0.0222047 -0.0825315,0.0172126 -0.113272,-0.0356772zm-0.395646 -0.0251024c0.0485591,0.0358976 0.104449,0.0795394 0.120453,0.138587 0.0160079,0.0590472 -0.0116063,0.0940827 -0.054252,0.105642 -0.0426417,0.011563 -0.0841693,-0.00473228 -0.100177,-0.0637795 -0.0160039,-0.0590472 0.00861811,-0.122228 0.0339764,-0.180449zm1.0648 -0.585492c-0.0530709,-0.030437 -0.0803346,-0.0925197 -0.103571,-0.151618 0.0597205,-0.00895669 0.130098,-0.0176142 0.183169,0.0128189 0.0530709,0.030437 0.0583189,0.0747362 0.0363386,0.113063 -0.0219803,0.0383268 -0.0628661,0.0561693 -0.115937,0.0257362zm-2.24185 0.0747559c-0.030437,0.0530709 -0.0747362,0.0583189 -0.113063,0.0363386 -0.0383268,-0.0219803 -0.0561693,-0.0628661 -0.0257362,-0.115937 0.030437,-0.0530709 0.0925197,-0.0803346 0.151618,-0.103571 0.00895669,0.0597205 0.0176142,0.130098 -0.0128189,0.183169zm1.5051 0.0861496c-0.0433858,-0.0431339 -0.0536535,-0.110161 -0.0607992,-0.17326 0.06,0.00680709 0.130224,0.0166575 0.17361,0.0597913 0.0433819,0.0431339 0.0369882,0.0872795 0.00583465,0.118614 -0.0311496,0.0313346 -0.0752598,0.0379843 -0.118646,-0.00514567zm-1.66079 -0.698795c-0.0590472,0.0160079 -0.0940827,-0.0116063 -0.105642,-0.054252 -0.011563,-0.0426417 0.00473228,-0.0841693 0.0637795,-0.100177 0.0590472,-0.0160039 0.122228,0.00861811 0.180449,0.0339764 -0.0358976,0.0485591 -0.0795394,0.104449 -0.138587,0.120453zm-0.195882 0.713291c-0.00680709,0.06 -0.0166575,0.130224 -0.0597913,0.17361 -0.0431339,0.0433819 -0.0872795,0.0369882 -0.118614,0.00583465 -0.0313346,-0.0311496 -0.0379843,-0.0752598 0.00514567,-0.118646 0.0431339,-0.0433858 0.110161,-0.0536535 0.17326,-0.0607992zm2.29904 0.173945c-0.0433858,-0.0431339 -0.0536535,-0.110161 -0.0607992,-0.17326 0.06,0.00680709 0.130224,0.0166575 0.17361,0.0597913 0.0433819,0.0431339 0.0369882,0.0872795 0.00583465,0.118614 -0.0311496,0.0313346 -0.0752598,0.0379843 -0.118646,-0.00514567z"/>
  <path class="fil3" d="M5.51851 2.25333c-0.0205315,0.549925 -0.251862,1.04595 -0.615543,1.40963 -0.381228,0.381232 -0.907902,0.617035 -1.48963,0.617035 -0.581732,0 -1.10841,-0.235803 -1.48963,-0.617035 -0.363681,-0.363681 -0.595012,-0.859709 -0.615543,-1.40963l-0.293469 0c0.0206693,0.630945 0.284823,1.2003 0.701583,1.61706 0.434307,0.434307 1.03431,0.702937 1.69706,0.702937 0.662748,0 1.26276,-0.26863 1.69706,-0.702937 0.41676,-0.41676 0.680913,-0.986118 0.701583,-1.61706l-0.293469 0z"/>
 </g>
 <rect class="fil4" width="6.82666" height="6.82666"/>
</svg>
